solid OpenSCAD_Model
  facet normal 0.994522 0.104528 0
    outer loop
      vertex 101.6 0 12.7
      vertex 99.3798 21.1238 0
      vertex 99.3798 21.1238 12.7
    endloop
  endfacet
  facet normal 0.994522 0.104528 0
    outer loop
      vertex 99.3798 21.1238 0
      vertex 101.6 0 12.7
      vertex 101.6 0 0
    endloop
  endfacet
  facet normal -0.994522 0.104528 0
    outer loop
      vertex -101.6 0 0
      vertex -99.3798 21.1238 12.7
      vertex -99.3798 21.1238 0
    endloop
  endfacet
  facet normal -0.994522 0.104528 0
    outer loop
      vertex -99.3798 21.1238 12.7
      vertex -101.6 0 0
      vertex -101.6 0 12.7
    endloop
  endfacet
  facet normal 0 1 -0
    outer loop
      vertex 10.6201 101.043 0
      vertex -10.6201 101.043 12.7
      vertex 10.6201 101.043 12.7
    endloop
  endfacet
  facet normal 0 1 0
    outer loop
      vertex -10.6201 101.043 12.7
      vertex 10.6201 101.043 0
      vertex -10.6201 101.043 0
    endloop
  endfacet
  facet normal 0 -1 0
    outer loop
      vertex -10.6201 -101.043 0
      vertex 10.6201 -101.043 12.7
      vertex -10.6201 -101.043 12.7
    endloop
  endfacet
  facet normal 0 -1 -0
    outer loop
      vertex 10.6201 -101.043 12.7
      vertex -10.6201 -101.043 0
      vertex 10.6201 -101.043 0
    endloop
  endfacet
  facet normal 0.743145 0.669131 0
    outer loop
      vertex 82.1961 59.719 12.7
      vertex 67.9837 75.5035 0
      vertex 67.9837 75.5035 12.7
    endloop
  endfacet
  facet normal 0.743145 0.669131 0
    outer loop
      vertex 67.9837 75.5035 0
      vertex 82.1961 59.719 12.7
      vertex 82.1961 59.719 0
    endloop
  endfacet
  facet normal 0.951056 0.309017 0
    outer loop
      vertex 99.3798 21.1238 12.7
      vertex 92.8162 41.3244 0
      vertex 92.8162 41.3244 12.7
    endloop
  endfacet
  facet normal 0.951056 0.309017 0
    outer loop
      vertex 92.8162 41.3244 0
      vertex 99.3798 21.1238 12.7
      vertex 99.3798 21.1238 0
    endloop
  endfacet
  facet normal -0.587785 0.809017 0
    outer loop
      vertex -50.8 87.9882 0
      vertex -67.9837 75.5035 12.7
      vertex -50.8 87.9882 12.7
    endloop
  endfacet
  facet normal -0.587785 0.809017 0
    outer loop
      vertex -67.9837 75.5035 12.7
      vertex -50.8 87.9882 0
      vertex -67.9837 75.5035 0
    endloop
  endfacet
  facet normal -0.207912 0.978148 0
    outer loop
      vertex -10.6201 101.043 0
      vertex -31.3961 96.6273 12.7
      vertex -10.6201 101.043 12.7
    endloop
  endfacet
  facet normal -0.207912 0.978148 0
    outer loop
      vertex -31.3961 96.6273 12.7
      vertex -10.6201 101.043 0
      vertex -31.3961 96.6273 0
    endloop
  endfacet
  facet normal 0.866025 -0.5 0
    outer loop
      vertex 82.1961 -59.719 12.7
      vertex 92.8162 -41.3244 0
      vertex 92.8162 -41.3244 12.7
    endloop
  endfacet
  facet normal 0.866025 -0.5 0
    outer loop
      vertex 92.8162 -41.3244 0
      vertex 82.1961 -59.719 12.7
      vertex 82.1961 -59.719 0
    endloop
  endfacet
  facet normal 0.866025 0.5 0
    outer loop
      vertex 92.8162 41.3244 12.7
      vertex 82.1961 59.719 0
      vertex 82.1961 59.719 12.7
    endloop
  endfacet
  facet normal 0.866025 0.5 0
    outer loop
      vertex 82.1961 59.719 0
      vertex 92.8162 41.3244 12.7
      vertex 92.8162 41.3244 0
    endloop
  endfacet
  facet normal 0.406737 0.913545 -0
    outer loop
      vertex 50.8 87.9882 0
      vertex 31.3961 96.6273 12.7
      vertex 50.8 87.9882 12.7
    endloop
  endfacet
  facet normal 0.406737 0.913545 0
    outer loop
      vertex 31.3961 96.6273 12.7
      vertex 50.8 87.9882 0
      vertex 31.3961 96.6273 0
    endloop
  endfacet
  facet normal 0.207912 0.978148 -0
    outer loop
      vertex 31.3961 96.6273 0
      vertex 10.6201 101.043 12.7
      vertex 31.3961 96.6273 12.7
    endloop
  endfacet
  facet normal 0.207912 0.978148 0
    outer loop
      vertex 10.6201 101.043 12.7
      vertex 31.3961 96.6273 0
      vertex 10.6201 101.043 0
    endloop
  endfacet
  facet normal 0.587785 0.809017 -0
    outer loop
      vertex 67.9837 75.5035 0
      vertex 50.8 87.9882 12.7
      vertex 67.9837 75.5035 12.7
    endloop
  endfacet
  facet normal 0.587785 0.809017 0
    outer loop
      vertex 50.8 87.9882 12.7
      vertex 67.9837 75.5035 0
      vertex 50.8 87.9882 0
    endloop
  endfacet
  facet normal -0.866025 0.5 0
    outer loop
      vertex -92.8162 41.3244 0
      vertex -82.1961 59.719 12.7
      vertex -82.1961 59.719 0
    endloop
  endfacet
  facet normal -0.866025 0.5 0
    outer loop
      vertex -82.1961 59.719 12.7
      vertex -92.8162 41.3244 0
      vertex -92.8162 41.3244 12.7
    endloop
  endfacet
  facet normal -0.743145 0.669131 0
    outer loop
      vertex -82.1961 59.719 0
      vertex -67.9837 75.5035 12.7
      vertex -67.9837 75.5035 0
    endloop
  endfacet
  facet normal -0.743145 0.669131 0
    outer loop
      vertex -67.9837 75.5035 12.7
      vertex -82.1961 59.719 0
      vertex -82.1961 59.719 12.7
    endloop
  endfacet
  facet normal -0.951056 0.309017 0
    outer loop
      vertex -99.3798 21.1238 0
      vertex -92.8162 41.3244 12.7
      vertex -92.8162 41.3244 0
    endloop
  endfacet
  facet normal -0.951056 0.309017 0
    outer loop
      vertex -92.8162 41.3244 12.7
      vertex -99.3798 21.1238 0
      vertex -99.3798 21.1238 12.7
    endloop
  endfacet
  facet normal 0 0 1
    outer loop
      vertex -8.70152 -3.87417 12.7
      vertex -74.8627 -3.73244 12.7
      vertex -7.70589 -5.59865 12.7
    endloop
  endfacet
  facet normal 0 0 1
    outer loop
      vertex -82.1961 -59.719 12.7
      vertex -7.70589 -5.59865 12.7
      vertex -74.8627 -3.73244 12.7
    endloop
  endfacet
  facet normal 0 0 1
    outer loop
      vertex -82.1961 -59.719 12.7
      vertex -74.8627 -3.73244 12.7
      vertex -76.2676 -5.13726 12.7
    endloop
  endfacet
  facet normal 0 0 1
    outer loop
      vertex -92.8162 -41.3244 12.7
      vertex -76.2676 -5.13726 12.7
      vertex -78.0377 -6.03921 12.7
    endloop
  endfacet
  facet normal 0 0 1
    outer loop
      vertex -92.8162 -41.3244 12.7
      vertex -78.0377 -6.03921 12.7
      vertex -80 -6.35 12.7
    endloop
  endfacet
  facet normal 0 0 1
    outer loop
      vertex -99.3798 -21.1238 12.7
      vertex -80 -6.35 12.7
      vertex -81.9623 -6.03921 12.7
    endloop
  endfacet
  facet normal 0 0 1
    outer loop
      vertex -7.70589 -5.59865 12.7
      vertex -82.1961 -59.719 12.7
      vertex -67.9837 -75.5035 12.7
    endloop
  endfacet
  facet normal 0 0 1
    outer loop
      vertex -99.3798 -21.1238 12.7
      vertex -81.9623 -6.03921 12.7
      vertex -83.7324 -5.13726 12.7
    endloop
  endfacet
  facet normal 0 0 1
    outer loop
      vertex -99.3798 -21.1238 12.7
      vertex -83.7324 -5.13726 12.7
      vertex -85.1373 -3.73244 12.7
    endloop
  endfacet
  facet normal 0 0 1
    outer loop
      vertex -101.6 0 12.7
      vertex -85.1373 -3.73244 12.7
      vertex -86.0392 -1.96226 12.7
    endloop
  endfacet
  facet normal -0 0 1
    outer loop
      vertex -101.6 0 12.7
      vertex -86.0392 -1.96226 12.7
      vertex -86.35 0 12.7
    endloop
  endfacet
  facet normal 0 0 1
    outer loop
      vertex -85.1373 3.73244 12.7
      vertex -101.6 0 12.7
      vertex -86.0392 1.96226 12.7
    endloop
  endfacet
  facet normal 0 0 1
    outer loop
      vertex -76.2676 -5.13726 12.7
      vertex -92.8162 -41.3244 12.7
      vertex -82.1961 -59.719 12.7
    endloop
  endfacet
  facet normal 0 0 1
    outer loop
      vertex -86.0392 1.96226 12.7
      vertex -101.6 0 12.7
      vertex -86.35 0 12.7
    endloop
  endfacet
  facet normal 0 0 1
    outer loop
      vertex -80 -6.35 12.7
      vertex -99.3798 -21.1238 12.7
      vertex -92.8162 -41.3244 12.7
    endloop
  endfacet
  facet normal 0 0 1
    outer loop
      vertex -85.1373 -3.73244 12.7
      vertex -101.6 0 12.7
      vertex -99.3798 -21.1238 12.7
    endloop
  endfacet
  facet normal 0 0 1
    outer loop
      vertex 31.3961 -96.6273 12.7
      vertex 6.03921 -78.0377 12.7
      vertex 6.35 -80 12.7
    endloop
  endfacet
  facet normal 0 0 1
    outer loop
      vertex 67.9837 -75.5035 12.7
      vertex 5.13726 -76.2676 12.7
      vertex 6.03921 -78.0377 12.7
    endloop
  endfacet
  facet normal 0 0 1
    outer loop
      vertex 3.73244 -74.8627 12.7
      vertex 6.37347 -7.07845 12.7
      vertex 4.7625 -8.24889 12.7
    endloop
  endfacet
  facet normal 0 0 1
    outer loop
      vertex 67.9837 -75.5035 12.7
      vertex 3.73244 -74.8627 12.7
      vertex 5.13726 -76.2676 12.7
    endloop
  endfacet
  facet normal 0 0 1
    outer loop
      vertex 1.96226 -73.9608 12.7
      vertex 4.7625 -8.24889 12.7
      vertex 2.94339 -9.05881 12.7
    endloop
  endfacet
  facet normal 0 0 1
    outer loop
      vertex 4.7625 -8.24889 12.7
      vertex 1.96226 -73.9608 12.7
      vertex 3.73244 -74.8627 12.7
    endloop
  endfacet
  facet normal -0 0 1
    outer loop
      vertex 0.995633 -9.47282 12.7
      vertex 1.96226 -73.9608 12.7
      vertex 2.94339 -9.05881 12.7
    endloop
  endfacet
  facet normal 0 0 1
    outer loop
      vertex 0.995633 -9.47282 12.7
      vertex 0 -73.65 12.7
      vertex 1.96226 -73.9608 12.7
    endloop
  endfacet
  facet normal -0 0 1
    outer loop
      vertex -0.995633 -9.47282 12.7
      vertex 0 -73.65 12.7
      vertex 0.995633 -9.47282 12.7
    endloop
  endfacet
  facet normal 0 0 1
    outer loop
      vertex -0.995633 -9.47282 12.7
      vertex -1.96226 -73.9608 12.7
      vertex 0 -73.65 12.7
    endloop
  endfacet
  facet normal 0 0 1
    outer loop
      vertex -2.94339 -9.05881 12.7
      vertex -1.96226 -73.9608 12.7
      vertex -0.995633 -9.47282 12.7
    endloop
  endfacet
  facet normal 0 0 1
    outer loop
      vertex -4.7625 -8.24889 12.7
      vertex -1.96226 -73.9608 12.7
      vertex -2.94339 -9.05881 12.7
    endloop
  endfacet
  facet normal 0 0 1
    outer loop
      vertex -1.96226 -73.9608 12.7
      vertex -4.7625 -8.24889 12.7
      vertex -3.73244 -74.8627 12.7
    endloop
  endfacet
  facet normal 0 0 1
    outer loop
      vertex -6.37347 -7.07845 12.7
      vertex -3.73244 -74.8627 12.7
      vertex -4.7625 -8.24889 12.7
    endloop
  endfacet
  facet normal 0 0 1
    outer loop
      vertex -67.9837 -75.5035 12.7
      vertex -3.73244 -74.8627 12.7
      vertex -6.37347 -7.07845 12.7
    endloop
  endfacet
  facet normal 0 0 1
    outer loop
      vertex -3.73244 -74.8627 12.7
      vertex -67.9837 -75.5035 12.7
      vertex -5.13726 -76.2676 12.7
    endloop
  endfacet
  facet normal 0 -0 1
    outer loop
      vertex -50.8 -87.9882 12.7
      vertex -5.13726 -76.2676 12.7
      vertex -67.9837 -75.5035 12.7
    endloop
  endfacet
  facet normal -0 0 1
    outer loop
      vertex 6.37347 -7.07845 12.7
      vertex 67.9837 -75.5035 12.7
      vertex 7.70589 -5.59865 12.7
    endloop
  endfacet
  facet normal -0 0 1
    outer loop
      vertex 3.73244 -74.8627 12.7
      vertex 67.9837 -75.5035 12.7
      vertex 6.37347 -7.07845 12.7
    endloop
  endfacet
  facet normal 0 0 1
    outer loop
      vertex 6.03921 -78.0377 12.7
      vertex 31.3961 -96.6273 12.7
      vertex 50.8 -87.9882 12.7
    endloop
  endfacet
  facet normal -0 0 1
    outer loop
      vertex 6.03921 -78.0377 12.7
      vertex 50.8 -87.9882 12.7
      vertex 67.9837 -75.5035 12.7
    endloop
  endfacet
  facet normal -0 0 1
    outer loop
      vertex 6.03921 -81.9623 12.7
      vertex 31.3961 -96.6273 12.7
      vertex 6.35 -80 12.7
    endloop
  endfacet
  facet normal 0 0 1
    outer loop
      vertex 31.3961 -96.6273 12.7
      vertex 6.03921 -81.9623 12.7
      vertex 10.6201 -101.043 12.7
    endloop
  endfacet
  facet normal -0 0 1
    outer loop
      vertex 5.13726 -83.7324 12.7
      vertex 10.6201 -101.043 12.7
      vertex 6.03921 -81.9623 12.7
    endloop
  endfacet
  facet normal -0 0 1
    outer loop
      vertex 3.73244 -85.1373 12.7
      vertex 10.6201 -101.043 12.7
      vertex 5.13726 -83.7324 12.7
    endloop
  endfacet
  facet normal -0 0 1
    outer loop
      vertex 1.96226 -86.0392 12.7
      vertex 10.6201 -101.043 12.7
      vertex 3.73244 -85.1373 12.7
    endloop
  endfacet
  facet normal -0 0 1
    outer loop
      vertex 0 -86.35 12.7
      vertex 10.6201 -101.043 12.7
      vertex 1.96226 -86.0392 12.7
    endloop
  endfacet
  facet normal 0 0 1
    outer loop
      vertex -10.6201 -101.043 12.7
      vertex 0 -86.35 12.7
      vertex -1.96226 -86.0392 12.7
    endloop
  endfacet
  facet normal 0 0 1
    outer loop
      vertex -10.6201 -101.043 12.7
      vertex -1.96226 -86.0392 12.7
      vertex -3.73244 -85.1373 12.7
    endloop
  endfacet
  facet normal 0 0 1
    outer loop
      vertex -10.6201 -101.043 12.7
      vertex -3.73244 -85.1373 12.7
      vertex -5.13726 -83.7324 12.7
    endloop
  endfacet
  facet normal 0 0 1
    outer loop
      vertex -67.9837 -75.5035 12.7
      vertex -6.37347 -7.07845 12.7
      vertex -7.70589 -5.59865 12.7
    endloop
  endfacet
  facet normal 0 0 1
    outer loop
      vertex -9.31686 -1.98036 12.7
      vertex -73.9608 -1.96226 12.7
      vertex -8.70152 -3.87417 12.7
    endloop
  endfacet
  facet normal -0 0 1
    outer loop
      vertex -73.9608 -1.96226 12.7
      vertex -9.31686 -1.98036 12.7
      vertex -73.65 0 12.7
    endloop
  endfacet
  facet normal -0 0 1
    outer loop
      vertex -73.65 0 12.7
      vertex -9.31686 -1.98036 12.7
      vertex -9.525 0 12.7
    endloop
  endfacet
  facet normal 0 0 1
    outer loop
      vertex 0 -86.35 12.7
      vertex -10.6201 -101.043 12.7
      vertex 10.6201 -101.043 12.7
    endloop
  endfacet
  facet normal 0 0 1
    outer loop
      vertex -6.03921 -81.9623 12.7
      vertex -10.6201 -101.043 12.7
      vertex -5.13726 -83.7324 12.7
    endloop
  endfacet
  facet normal 0 0 1
    outer loop
      vertex -31.3961 -96.6273 12.7
      vertex -6.03921 -81.9623 12.7
      vertex -6.35 -80 12.7
    endloop
  endfacet
  facet normal 0 0 1
    outer loop
      vertex -5.13726 -76.2676 12.7
      vertex -50.8 -87.9882 12.7
      vertex -6.03921 -78.0377 12.7
    endloop
  endfacet
  facet normal -0 0 1
    outer loop
      vertex -82.1961 59.719 12.7
      vertex -7.70589 5.59865 12.7
      vertex -67.9837 75.5035 12.7
    endloop
  endfacet
  facet normal 0 -0 1
    outer loop
      vertex -74.8627 3.73244 12.7
      vertex -7.70589 5.59865 12.7
      vertex -82.1961 59.719 12.7
    endloop
  endfacet
  facet normal -0 0 1
    outer loop
      vertex -74.8627 -3.73244 12.7
      vertex -8.70152 -3.87417 12.7
      vertex -73.9608 -1.96226 12.7
    endloop
  endfacet
  facet normal 0 -0 1
    outer loop
      vertex -73.9608 1.96226 12.7
      vertex -8.70152 3.87417 12.7
      vertex -74.8627 3.73244 12.7
    endloop
  endfacet
  facet normal 0 0 1
    outer loop
      vertex -6.03921 -81.9623 12.7
      vertex -31.3961 -96.6273 12.7
      vertex -10.6201 -101.043 12.7
    endloop
  endfacet
  facet normal 0 0 1
    outer loop
      vertex -8.70152 3.87417 12.7
      vertex -73.9608 1.96226 12.7
      vertex -9.31686 1.98036 12.7
    endloop
  endfacet
  facet normal 0 0 1
    outer loop
      vertex -6.03921 -78.0377 12.7
      vertex -31.3961 -96.6273 12.7
      vertex -6.35 -80 12.7
    endloop
  endfacet
  facet normal 0 -0 1
    outer loop
      vertex -31.3961 -96.6273 12.7
      vertex -6.03921 -78.0377 12.7
      vertex -50.8 -87.9882 12.7
    endloop
  endfacet
  facet normal 0 0 1
    outer loop
      vertex -9.31686 1.98036 12.7
      vertex -73.65 0 12.7
      vertex -9.525 0 12.7
    endloop
  endfacet
  facet normal 0 -0 1
    outer loop
      vertex -73.65 0 12.7
      vertex -9.31686 1.98036 12.7
      vertex -73.9608 1.96226 12.7
    endloop
  endfacet
  facet normal 0 0 1
    outer loop
      vertex -7.70589 5.59865 12.7
      vertex -74.8627 3.73244 12.7
      vertex -8.70152 3.87417 12.7
    endloop
  endfacet
  facet normal 0 0 1
    outer loop
      vertex -74.8627 3.73244 12.7
      vertex -82.1961 59.719 12.7
      vertex -76.2676 5.13726 12.7
    endloop
  endfacet
  facet normal -0 0 1
    outer loop
      vertex -92.8162 41.3244 12.7
      vertex -76.2676 5.13726 12.7
      vertex -82.1961 59.719 12.7
    endloop
  endfacet
  facet normal 0 0 1
    outer loop
      vertex -76.2676 5.13726 12.7
      vertex -92.8162 41.3244 12.7
      vertex -78.0377 6.03921 12.7
    endloop
  endfacet
  facet normal 0 0 1
    outer loop
      vertex -78.0377 6.03921 12.7
      vertex -92.8162 41.3244 12.7
      vertex -80 6.35 12.7
    endloop
  endfacet
  facet normal -0 0 1
    outer loop
      vertex -99.3798 21.1238 12.7
      vertex -80 6.35 12.7
      vertex -92.8162 41.3244 12.7
    endloop
  endfacet
  facet normal 0 0 1
    outer loop
      vertex -80 6.35 12.7
      vertex -99.3798 21.1238 12.7
      vertex -81.9623 6.03921 12.7
    endloop
  endfacet
  facet normal 0 0 1
    outer loop
      vertex -81.9623 6.03921 12.7
      vertex -99.3798 21.1238 12.7
      vertex -83.7324 5.13726 12.7
    endloop
  endfacet
  facet normal 0 0 1
    outer loop
      vertex -83.7324 5.13726 12.7
      vertex -99.3798 21.1238 12.7
      vertex -85.1373 3.73244 12.7
    endloop
  endfacet
  facet normal 0 0 1
    outer loop
      vertex -101.6 0 12.7
      vertex -85.1373 3.73244 12.7
      vertex -99.3798 21.1238 12.7
    endloop
  endfacet
  facet normal 0 0 1
    outer loop
      vertex 50.8 87.9882 12.7
      vertex 5.13726 76.2676 12.7
      vertex 67.9837 75.5035 12.7
    endloop
  endfacet
  facet normal 0 0 1
    outer loop
      vertex 3.73244 74.8627 12.7
      vertex 67.9837 75.5035 12.7
      vertex 5.13726 76.2676 12.7
    endloop
  endfacet
  facet normal 0 0 1
    outer loop
      vertex 67.9837 75.5035 12.7
      vertex 3.73244 74.8627 12.7
      vertex 6.37347 7.07845 12.7
    endloop
  endfacet
  facet normal 0 0 1
    outer loop
      vertex 6.37347 7.07845 12.7
      vertex 3.73244 74.8627 12.7
      vertex 4.7625 8.24889 12.7
    endloop
  endfacet
  facet normal -0 0 1
    outer loop
      vertex 1.96226 73.9608 12.7
      vertex 4.7625 8.24889 12.7
      vertex 3.73244 74.8627 12.7
    endloop
  endfacet
  facet normal 0 0 1
    outer loop
      vertex 4.7625 8.24889 12.7
      vertex 1.96226 73.9608 12.7
      vertex 2.94339 9.05881 12.7
    endloop
  endfacet
  facet normal 0 0 1
    outer loop
      vertex 1.96226 73.9608 12.7
      vertex 0.995633 9.47282 12.7
      vertex 2.94339 9.05881 12.7
    endloop
  endfacet
  facet normal -0 0 1
    outer loop
      vertex 0 73.65 12.7
      vertex 0.995633 9.47282 12.7
      vertex 1.96226 73.9608 12.7
    endloop
  endfacet
  facet normal 0 0 1
    outer loop
      vertex 0 73.65 12.7
      vertex -0.995633 9.47282 12.7
      vertex 0.995633 9.47282 12.7
    endloop
  endfacet
  facet normal 0 0 1
    outer loop
      vertex -1.96226 73.9608 12.7
      vertex -0.995633 9.47282 12.7
      vertex 0 73.65 12.7
    endloop
  endfacet
  facet normal 0 0 1
    outer loop
      vertex -1.96226 73.9608 12.7
      vertex -2.94339 9.05881 12.7
      vertex -0.995633 9.47282 12.7
    endloop
  endfacet
  facet normal 0 0 1
    outer loop
      vertex -4.7625 8.24889 12.7
      vertex -1.96226 73.9608 12.7
      vertex -3.73244 74.8627 12.7
    endloop
  endfacet
  facet normal 0 0 1
    outer loop
      vertex -1.96226 73.9608 12.7
      vertex -4.7625 8.24889 12.7
      vertex -2.94339 9.05881 12.7
    endloop
  endfacet
  facet normal -0 0 1
    outer loop
      vertex -67.9837 75.5035 12.7
      vertex -3.73244 74.8627 12.7
      vertex -5.13726 76.2676 12.7
    endloop
  endfacet
  facet normal -0 0 1
    outer loop
      vertex -50.8 87.9882 12.7
      vertex -6.03921 78.0377 12.7
      vertex -31.3961 96.6273 12.7
    endloop
  endfacet
  facet normal 0 0 1
    outer loop
      vertex -31.3961 96.6273 12.7
      vertex -6.03921 78.0377 12.7
      vertex -6.35 80 12.7
    endloop
  endfacet
  facet normal 0 0 1
    outer loop
      vertex -3.73244 74.8627 12.7
      vertex -6.37347 7.07845 12.7
      vertex -4.7625 8.24889 12.7
    endloop
  endfacet
  facet normal -0 0 1
    outer loop
      vertex 85.1373 3.73244 12.7
      vertex 101.6 0 12.7
      vertex 99.3798 21.1238 12.7
    endloop
  endfacet
  facet normal 0 0 1
    outer loop
      vertex 80 6.35 12.7
      vertex 99.3798 21.1238 12.7
      vertex 92.8162 41.3244 12.7
    endloop
  endfacet
  facet normal 0 0 1
    outer loop
      vertex 101.6 0 12.7
      vertex 86.0392 1.96226 12.7
      vertex 86.35 0 12.7
    endloop
  endfacet
  facet normal 0 0 1
    outer loop
      vertex 85.1373 -3.73244 12.7
      vertex 101.6 0 12.7
      vertex 86.0392 -1.96226 12.7
    endloop
  endfacet
  facet normal 0 0 1
    outer loop
      vertex 86.0392 -1.96226 12.7
      vertex 101.6 0 12.7
      vertex 86.35 0 12.7
    endloop
  endfacet
  facet normal 0 0 1
    outer loop
      vertex 101.6 0 12.7
      vertex 85.1373 3.73244 12.7
      vertex 86.0392 1.96226 12.7
    endloop
  endfacet
  facet normal 0 0 1
    outer loop
      vertex 99.3798 21.1238 12.7
      vertex 83.7324 5.13726 12.7
      vertex 85.1373 3.73244 12.7
    endloop
  endfacet
  facet normal 0 0 1
    outer loop
      vertex 76.2676 5.13726 12.7
      vertex 92.8162 41.3244 12.7
      vertex 82.1961 59.719 12.7
    endloop
  endfacet
  facet normal 0 0 1
    outer loop
      vertex 99.3798 21.1238 12.7
      vertex 81.9623 6.03921 12.7
      vertex 83.7324 5.13726 12.7
    endloop
  endfacet
  facet normal 0 0 1
    outer loop
      vertex 99.3798 21.1238 12.7
      vertex 80 6.35 12.7
      vertex 81.9623 6.03921 12.7
    endloop
  endfacet
  facet normal 0 0 1
    outer loop
      vertex 92.8162 41.3244 12.7
      vertex 78.0377 6.03921 12.7
      vertex 80 6.35 12.7
    endloop
  endfacet
  facet normal 0 0 1
    outer loop
      vertex 92.8162 41.3244 12.7
      vertex 76.2676 5.13726 12.7
      vertex 78.0377 6.03921 12.7
    endloop
  endfacet
  facet normal 0 0 1
    outer loop
      vertex 82.1961 59.719 12.7
      vertex 74.8627 3.73244 12.7
      vertex 76.2676 5.13726 12.7
    endloop
  endfacet
  facet normal -0 0 1
    outer loop
      vertex 7.70589 5.59865 12.7
      vertex 74.8627 3.73244 12.7
      vertex 82.1961 59.719 12.7
    endloop
  endfacet
  facet normal -0 -0 1
    outer loop
      vertex 8.70152 3.87417 12.7
      vertex 74.8627 3.73244 12.7
      vertex 7.70589 5.59865 12.7
    endloop
  endfacet
  facet normal 0 0 1
    outer loop
      vertex 7.70589 5.59865 12.7
      vertex 82.1961 59.719 12.7
      vertex 67.9837 75.5035 12.7
    endloop
  endfacet
  facet normal 0 0 1
    outer loop
      vertex 101.6 0 12.7
      vertex 85.1373 -3.73244 12.7
      vertex 99.3798 -21.1238 12.7
    endloop
  endfacet
  facet normal -0 0 1
    outer loop
      vertex 83.7324 -5.13726 12.7
      vertex 99.3798 -21.1238 12.7
      vertex 85.1373 -3.73244 12.7
    endloop
  endfacet
  facet normal -0 0 1
    outer loop
      vertex 81.9623 -6.03921 12.7
      vertex 99.3798 -21.1238 12.7
      vertex 83.7324 -5.13726 12.7
    endloop
  endfacet
  facet normal -0 0 1
    outer loop
      vertex 80 -6.35 12.7
      vertex 99.3798 -21.1238 12.7
      vertex 81.9623 -6.03921 12.7
    endloop
  endfacet
  facet normal 0 0 1
    outer loop
      vertex 99.3798 -21.1238 12.7
      vertex 80 -6.35 12.7
      vertex 92.8162 -41.3244 12.7
    endloop
  endfacet
  facet normal 0 0 1
    outer loop
      vertex 78.0377 -6.03921 12.7
      vertex 92.8162 -41.3244 12.7
      vertex 80 -6.35 12.7
    endloop
  endfacet
  facet normal 0 0 1
    outer loop
      vertex 76.2676 -5.13726 12.7
      vertex 92.8162 -41.3244 12.7
      vertex 78.0377 -6.03921 12.7
    endloop
  endfacet
  facet normal 0 0 1
    outer loop
      vertex 92.8162 -41.3244 12.7
      vertex 76.2676 -5.13726 12.7
      vertex 82.1961 -59.719 12.7
    endloop
  endfacet
  facet normal 0 0 1
    outer loop
      vertex 74.8627 -3.73244 12.7
      vertex 82.1961 -59.719 12.7
      vertex 76.2676 -5.13726 12.7
    endloop
  endfacet
  facet normal 0 0 1
    outer loop
      vertex 73.65 0 12.7
      vertex 9.31686 -1.98036 12.7
      vertex 73.9608 -1.96226 12.7
    endloop
  endfacet
  facet normal 0 0 1
    outer loop
      vertex 9.31686 -1.98036 12.7
      vertex 73.65 0 12.7
      vertex 9.525 0 12.7
    endloop
  endfacet
  facet normal 0 0 1
    outer loop
      vertex 8.70152 -3.87417 12.7
      vertex 73.9608 -1.96226 12.7
      vertex 9.31686 -1.98036 12.7
    endloop
  endfacet
  facet normal 0 0 1
    outer loop
      vertex 74.8627 3.73244 12.7
      vertex 8.70152 3.87417 12.7
      vertex 73.9608 1.96226 12.7
    endloop
  endfacet
  facet normal 0 0 1
    outer loop
      vertex 31.3961 96.6273 12.7
      vertex 6.03921 78.0377 12.7
      vertex 50.8 87.9882 12.7
    endloop
  endfacet
  facet normal 0 0 1
    outer loop
      vertex 73.9608 -1.96226 12.7
      vertex 8.70152 -3.87417 12.7
      vertex 74.8627 -3.73244 12.7
    endloop
  endfacet
  facet normal 0 0 1
    outer loop
      vertex 6.03921 78.0377 12.7
      vertex 31.3961 96.6273 12.7
      vertex 6.35 80 12.7
    endloop
  endfacet
  facet normal 0 0 1
    outer loop
      vertex 7.70589 -5.59865 12.7
      vertex 74.8627 -3.73244 12.7
      vertex 8.70152 -3.87417 12.7
    endloop
  endfacet
  facet normal 0 0 1
    outer loop
      vertex 6.03921 81.9623 12.7
      vertex 31.3961 96.6273 12.7
      vertex 10.6201 101.043 12.7
    endloop
  endfacet
  facet normal 0 0 1
    outer loop
      vertex 74.8627 -3.73244 12.7
      vertex 7.70589 -5.59865 12.7
      vertex 82.1961 -59.719 12.7
    endloop
  endfacet
  facet normal 0 0 1
    outer loop
      vertex 82.1961 -59.719 12.7
      vertex 7.70589 -5.59865 12.7
      vertex 67.9837 -75.5035 12.7
    endloop
  endfacet
  facet normal 0 0 1
    outer loop
      vertex 73.65 0 12.7
      vertex 9.31686 1.98036 12.7
      vertex 9.525 0 12.7
    endloop
  endfacet
  facet normal 0 0 1
    outer loop
      vertex 5.13726 76.2676 12.7
      vertex 50.8 87.9882 12.7
      vertex 6.03921 78.0377 12.7
    endloop
  endfacet
  facet normal 0 0 1
    outer loop
      vertex 73.9608 1.96226 12.7
      vertex 9.31686 1.98036 12.7
      vertex 73.65 0 12.7
    endloop
  endfacet
  facet normal -0 -0 1
    outer loop
      vertex 9.31686 1.98036 12.7
      vertex 73.9608 1.96226 12.7
      vertex 8.70152 3.87417 12.7
    endloop
  endfacet
  facet normal 0 0 1
    outer loop
      vertex 67.9837 75.5035 12.7
      vertex 6.37347 7.07845 12.7
      vertex 7.70589 5.59865 12.7
    endloop
  endfacet
  facet normal 0 0 1
    outer loop
      vertex 31.3961 96.6273 12.7
      vertex 6.03921 81.9623 12.7
      vertex 6.35 80 12.7
    endloop
  endfacet
  facet normal 0 0 1
    outer loop
      vertex 10.6201 101.043 12.7
      vertex 5.13726 83.7324 12.7
      vertex 6.03921 81.9623 12.7
    endloop
  endfacet
  facet normal 0 0 1
    outer loop
      vertex 10.6201 101.043 12.7
      vertex 3.73244 85.1373 12.7
      vertex 5.13726 83.7324 12.7
    endloop
  endfacet
  facet normal 0 0 1
    outer loop
      vertex 10.6201 101.043 12.7
      vertex 1.96226 86.0392 12.7
      vertex 3.73244 85.1373 12.7
    endloop
  endfacet
  facet normal 0 0 1
    outer loop
      vertex 10.6201 101.043 12.7
      vertex 0 86.35 12.7
      vertex 1.96226 86.0392 12.7
    endloop
  endfacet
  facet normal -0 0 1
    outer loop
      vertex -10.6201 101.043 12.7
      vertex 0 86.35 12.7
      vertex 10.6201 101.043 12.7
    endloop
  endfacet
  facet normal 0 0 1
    outer loop
      vertex 0 86.35 12.7
      vertex -10.6201 101.043 12.7
      vertex -1.96226 86.0392 12.7
    endloop
  endfacet
  facet normal 0 0 1
    outer loop
      vertex -1.96226 86.0392 12.7
      vertex -10.6201 101.043 12.7
      vertex -3.73244 85.1373 12.7
    endloop
  endfacet
  facet normal 0 0 1
    outer loop
      vertex -67.9837 75.5035 12.7
      vertex -5.13726 76.2676 12.7
      vertex -50.8 87.9882 12.7
    endloop
  endfacet
  facet normal 0 0 1
    outer loop
      vertex -6.03921 78.0377 12.7
      vertex -50.8 87.9882 12.7
      vertex -5.13726 76.2676 12.7
    endloop
  endfacet
  facet normal 0 0 1
    outer loop
      vertex -3.73244 74.8627 12.7
      vertex -67.9837 75.5035 12.7
      vertex -6.37347 7.07845 12.7
    endloop
  endfacet
  facet normal 0 0 1
    outer loop
      vertex -6.03921 81.9623 12.7
      vertex -31.3961 96.6273 12.7
      vertex -6.35 80 12.7
    endloop
  endfacet
  facet normal 0 0 1
    outer loop
      vertex -6.37347 7.07845 12.7
      vertex -67.9837 75.5035 12.7
      vertex -7.70589 5.59865 12.7
    endloop
  endfacet
  facet normal -0 0 1
    outer loop
      vertex -31.3961 96.6273 12.7
      vertex -6.03921 81.9623 12.7
      vertex -10.6201 101.043 12.7
    endloop
  endfacet
  facet normal 0 0 1
    outer loop
      vertex -5.13726 83.7324 12.7
      vertex -10.6201 101.043 12.7
      vertex -6.03921 81.9623 12.7
    endloop
  endfacet
  facet normal 0 0 1
    outer loop
      vertex -3.73244 85.1373 12.7
      vertex -10.6201 101.043 12.7
      vertex -5.13726 83.7324 12.7
    endloop
  endfacet
  facet normal -0.406737 0.913545 0
    outer loop
      vertex -31.3961 96.6273 0
      vertex -50.8 87.9882 12.7
      vertex -31.3961 96.6273 12.7
    endloop
  endfacet
  facet normal -0.406737 0.913545 0
    outer loop
      vertex -50.8 87.9882 12.7
      vertex -31.3961 96.6273 0
      vertex -50.8 87.9882 0
    endloop
  endfacet
  facet normal 0.994522 -0.104528 0
    outer loop
      vertex 99.3798 -21.1238 12.7
      vertex 101.6 0 0
      vertex 101.6 0 12.7
    endloop
  endfacet
  facet normal 0.994522 -0.104528 0
    outer loop
      vertex 101.6 0 0
      vertex 99.3798 -21.1238 12.7
      vertex 99.3798 -21.1238 0
    endloop
  endfacet
  facet normal -0 0 -1
    outer loop
      vertex -8.70152 3.87417 0
      vertex -74.8627 3.73244 0
      vertex -7.70589 5.59865 0
    endloop
  endfacet
  facet normal 0 0 -1
    outer loop
      vertex -82.1961 59.719 0
      vertex -7.70589 5.59865 0
      vertex -74.8627 3.73244 0
    endloop
  endfacet
  facet normal 0 0 -1
    outer loop
      vertex -82.1961 59.719 0
      vertex -74.8627 3.73244 0
      vertex -76.2676 5.13726 0
    endloop
  endfacet
  facet normal 0 0 -1
    outer loop
      vertex -92.8162 41.3244 0
      vertex -76.2676 5.13726 0
      vertex -78.0377 6.03921 0
    endloop
  endfacet
  facet normal 0 0 -1
    outer loop
      vertex -92.8162 41.3244 0
      vertex -78.0377 6.03921 0
      vertex -80 6.35 0
    endloop
  endfacet
  facet normal 0 0 -1
    outer loop
      vertex -99.3798 21.1238 0
      vertex -80 6.35 0
      vertex -81.9623 6.03921 0
    endloop
  endfacet
  facet normal 0 0 -1
    outer loop
      vertex -7.70589 5.59865 0
      vertex -82.1961 59.719 0
      vertex -67.9837 75.5035 0
    endloop
  endfacet
  facet normal 0 0 -1
    outer loop
      vertex -99.3798 21.1238 0
      vertex -81.9623 6.03921 0
      vertex -83.7324 5.13726 0
    endloop
  endfacet
  facet normal 0 0 -1
    outer loop
      vertex -99.3798 21.1238 0
      vertex -83.7324 5.13726 0
      vertex -85.1373 3.73244 0
    endloop
  endfacet
  facet normal 0 0 -1
    outer loop
      vertex -101.6 0 0
      vertex -85.1373 3.73244 0
      vertex -86.0392 1.96226 0
    endloop
  endfacet
  facet normal 0 0 -1
    outer loop
      vertex -101.6 0 0
      vertex -86.0392 1.96226 0
      vertex -86.35 0 0
    endloop
  endfacet
  facet normal 0 0 -1
    outer loop
      vertex -85.1373 -3.73244 0
      vertex -101.6 0 0
      vertex -86.0392 -1.96226 0
    endloop
  endfacet
  facet normal 0 0 -1
    outer loop
      vertex -76.2676 5.13726 0
      vertex -92.8162 41.3244 0
      vertex -82.1961 59.719 0
    endloop
  endfacet
  facet normal 0 0 -1
    outer loop
      vertex -86.0392 -1.96226 0
      vertex -101.6 0 0
      vertex -86.35 0 0
    endloop
  endfacet
  facet normal 0 0 -1
    outer loop
      vertex -80 6.35 0
      vertex -99.3798 21.1238 0
      vertex -92.8162 41.3244 0
    endloop
  endfacet
  facet normal -0 0 -1
    outer loop
      vertex -85.1373 3.73244 0
      vertex -101.6 0 0
      vertex -99.3798 21.1238 0
    endloop
  endfacet
  facet normal 0 0 -1
    outer loop
      vertex 31.3961 96.6273 0
      vertex 6.03921 78.0377 0
      vertex 6.35 80 0
    endloop
  endfacet
  facet normal 0 0 -1
    outer loop
      vertex 67.9837 75.5035 0
      vertex 5.13726 76.2676 0
      vertex 6.03921 78.0377 0
    endloop
  endfacet
  facet normal 0 0 -1
    outer loop
      vertex 3.73244 74.8627 0
      vertex 6.37347 7.07845 0
      vertex 4.7625 8.24889 0
    endloop
  endfacet
  facet normal -0 0 -1
    outer loop
      vertex 67.9837 75.5035 0
      vertex 3.73244 74.8627 0
      vertex 5.13726 76.2676 0
    endloop
  endfacet
  facet normal 0 0 -1
    outer loop
      vertex 1.96226 73.9608 0
      vertex 4.7625 8.24889 0
      vertex 2.94339 9.05881 0
    endloop
  endfacet
  facet normal 0 0 -1
    outer loop
      vertex 4.7625 8.24889 0
      vertex 1.96226 73.9608 0
      vertex 3.73244 74.8627 0
    endloop
  endfacet
  facet normal 0 0 -1
    outer loop
      vertex 0.995633 9.47282 0
      vertex 1.96226 73.9608 0
      vertex 2.94339 9.05881 0
    endloop
  endfacet
  facet normal 0 0 -1
    outer loop
      vertex 0.995633 9.47282 0
      vertex 0 73.65 0
      vertex 1.96226 73.9608 0
    endloop
  endfacet
  facet normal 0 0 -1
    outer loop
      vertex -0.995633 9.47282 0
      vertex 0 73.65 0
      vertex 0.995633 9.47282 0
    endloop
  endfacet
  facet normal 0 0 -1
    outer loop
      vertex -0.995633 9.47282 0
      vertex -1.96226 73.9608 0
      vertex 0 73.65 0
    endloop
  endfacet
  facet normal 0 0 -1
    outer loop
      vertex -2.94339 9.05881 0
      vertex -1.96226 73.9608 0
      vertex -0.995633 9.47282 0
    endloop
  endfacet
  facet normal 0 0 -1
    outer loop
      vertex -4.7625 8.24889 0
      vertex -1.96226 73.9608 0
      vertex -2.94339 9.05881 0
    endloop
  endfacet
  facet normal -0 0 -1
    outer loop
      vertex -1.96226 73.9608 0
      vertex -4.7625 8.24889 0
      vertex -3.73244 74.8627 0
    endloop
  endfacet
  facet normal 0 0 -1
    outer loop
      vertex -6.37347 7.07845 0
      vertex -3.73244 74.8627 0
      vertex -4.7625 8.24889 0
    endloop
  endfacet
  facet normal 0 0 -1
    outer loop
      vertex -67.9837 75.5035 0
      vertex -3.73244 74.8627 0
      vertex -6.37347 7.07845 0
    endloop
  endfacet
  facet normal 0 0 -1
    outer loop
      vertex -3.73244 74.8627 0
      vertex -67.9837 75.5035 0
      vertex -5.13726 76.2676 0
    endloop
  endfacet
  facet normal 0 -0 -1
    outer loop
      vertex -50.8 87.9882 0
      vertex -5.13726 76.2676 0
      vertex -67.9837 75.5035 0
    endloop
  endfacet
  facet normal 0 0 -1
    outer loop
      vertex 6.37347 7.07845 0
      vertex 67.9837 75.5035 0
      vertex 7.70589 5.59865 0
    endloop
  endfacet
  facet normal 0 0 -1
    outer loop
      vertex 3.73244 74.8627 0
      vertex 67.9837 75.5035 0
      vertex 6.37347 7.07845 0
    endloop
  endfacet
  facet normal 0 0 -1
    outer loop
      vertex 6.03921 78.0377 0
      vertex 31.3961 96.6273 0
      vertex 50.8 87.9882 0
    endloop
  endfacet
  facet normal 0 0 -1
    outer loop
      vertex 6.03921 78.0377 0
      vertex 50.8 87.9882 0
      vertex 67.9837 75.5035 0
    endloop
  endfacet
  facet normal 0 0 -1
    outer loop
      vertex 6.03921 81.9623 0
      vertex 31.3961 96.6273 0
      vertex 6.35 80 0
    endloop
  endfacet
  facet normal -0 0 -1
    outer loop
      vertex 31.3961 96.6273 0
      vertex 6.03921 81.9623 0
      vertex 10.6201 101.043 0
    endloop
  endfacet
  facet normal 0 0 -1
    outer loop
      vertex 5.13726 83.7324 0
      vertex 10.6201 101.043 0
      vertex 6.03921 81.9623 0
    endloop
  endfacet
  facet normal 0 0 -1
    outer loop
      vertex 3.73244 85.1373 0
      vertex 10.6201 101.043 0
      vertex 5.13726 83.7324 0
    endloop
  endfacet
  facet normal 0 0 -1
    outer loop
      vertex 1.96226 86.0392 0
      vertex 10.6201 101.043 0
      vertex 3.73244 85.1373 0
    endloop
  endfacet
  facet normal 0 0 -1
    outer loop
      vertex 0 86.35 0
      vertex 10.6201 101.043 0
      vertex 1.96226 86.0392 0
    endloop
  endfacet
  facet normal 0 0 -1
    outer loop
      vertex -10.6201 101.043 0
      vertex 0 86.35 0
      vertex -1.96226 86.0392 0
    endloop
  endfacet
  facet normal 0 0 -1
    outer loop
      vertex -10.6201 101.043 0
      vertex -1.96226 86.0392 0
      vertex -3.73244 85.1373 0
    endloop
  endfacet
  facet normal 0 0 -1
    outer loop
      vertex -10.6201 101.043 0
      vertex -3.73244 85.1373 0
      vertex -5.13726 83.7324 0
    endloop
  endfacet
  facet normal 0 0 -1
    outer loop
      vertex -67.9837 75.5035 0
      vertex -6.37347 7.07845 0
      vertex -7.70589 5.59865 0
    endloop
  endfacet
  facet normal -0 0 -1
    outer loop
      vertex -9.31686 1.98036 0
      vertex -73.9608 1.96226 0
      vertex -8.70152 3.87417 0
    endloop
  endfacet
  facet normal 0 0 -1
    outer loop
      vertex -73.9608 1.96226 0
      vertex -9.31686 1.98036 0
      vertex -73.65 0 0
    endloop
  endfacet
  facet normal 0 0 -1
    outer loop
      vertex -73.65 0 0
      vertex -9.31686 1.98036 0
      vertex -9.525 0 0
    endloop
  endfacet
  facet normal 0 0 -1
    outer loop
      vertex 0 86.35 0
      vertex -10.6201 101.043 0
      vertex 10.6201 101.043 0
    endloop
  endfacet
  facet normal 0 0 -1
    outer loop
      vertex -6.03921 81.9623 0
      vertex -10.6201 101.043 0
      vertex -5.13726 83.7324 0
    endloop
  endfacet
  facet normal 0 0 -1
    outer loop
      vertex -31.3961 96.6273 0
      vertex -6.03921 81.9623 0
      vertex -6.35 80 0
    endloop
  endfacet
  facet normal 0 0 -1
    outer loop
      vertex -5.13726 76.2676 0
      vertex -50.8 87.9882 0
      vertex -6.03921 78.0377 0
    endloop
  endfacet
  facet normal 0 0 -1
    outer loop
      vertex -82.1961 -59.719 0
      vertex -7.70589 -5.59865 0
      vertex -67.9837 -75.5035 0
    endloop
  endfacet
  facet normal 0 -0 -1
    outer loop
      vertex -74.8627 -3.73244 0
      vertex -7.70589 -5.59865 0
      vertex -82.1961 -59.719 0
    endloop
  endfacet
  facet normal 0 0 -1
    outer loop
      vertex -74.8627 3.73244 0
      vertex -8.70152 3.87417 0
      vertex -73.9608 1.96226 0
    endloop
  endfacet
  facet normal 0 -0 -1
    outer loop
      vertex -73.9608 -1.96226 0
      vertex -8.70152 -3.87417 0
      vertex -74.8627 -3.73244 0
    endloop
  endfacet
  facet normal 0 0 -1
    outer loop
      vertex -6.03921 81.9623 0
      vertex -31.3961 96.6273 0
      vertex -10.6201 101.043 0
    endloop
  endfacet
  facet normal 0 0 -1
    outer loop
      vertex -8.70152 -3.87417 0
      vertex -73.9608 -1.96226 0
      vertex -9.31686 -1.98036 0
    endloop
  endfacet
  facet normal 0 0 -1
    outer loop
      vertex -6.03921 78.0377 0
      vertex -31.3961 96.6273 0
      vertex -6.35 80 0
    endloop
  endfacet
  facet normal 0 -0 -1
    outer loop
      vertex -31.3961 96.6273 0
      vertex -6.03921 78.0377 0
      vertex -50.8 87.9882 0
    endloop
  endfacet
  facet normal 0 0 -1
    outer loop
      vertex -9.31686 -1.98036 0
      vertex -73.65 0 0
      vertex -9.525 0 0
    endloop
  endfacet
  facet normal 0 -0 -1
    outer loop
      vertex -73.65 0 0
      vertex -9.31686 -1.98036 0
      vertex -73.9608 -1.96226 0
    endloop
  endfacet
  facet normal 0 0 -1
    outer loop
      vertex -7.70589 -5.59865 0
      vertex -74.8627 -3.73244 0
      vertex -8.70152 -3.87417 0
    endloop
  endfacet
  facet normal 0 0 -1
    outer loop
      vertex -74.8627 -3.73244 0
      vertex -82.1961 -59.719 0
      vertex -76.2676 -5.13726 0
    endloop
  endfacet
  facet normal 0 0 -1
    outer loop
      vertex -92.8162 -41.3244 0
      vertex -76.2676 -5.13726 0
      vertex -82.1961 -59.719 0
    endloop
  endfacet
  facet normal 0 0 -1
    outer loop
      vertex -76.2676 -5.13726 0
      vertex -92.8162 -41.3244 0
      vertex -78.0377 -6.03921 0
    endloop
  endfacet
  facet normal 0 0 -1
    outer loop
      vertex -78.0377 -6.03921 0
      vertex -92.8162 -41.3244 0
      vertex -80 -6.35 0
    endloop
  endfacet
  facet normal 0 0 -1
    outer loop
      vertex -99.3798 -21.1238 0
      vertex -80 -6.35 0
      vertex -92.8162 -41.3244 0
    endloop
  endfacet
  facet normal -0 0 -1
    outer loop
      vertex -80 -6.35 0
      vertex -99.3798 -21.1238 0
      vertex -81.9623 -6.03921 0
    endloop
  endfacet
  facet normal -0 0 -1
    outer loop
      vertex -81.9623 -6.03921 0
      vertex -99.3798 -21.1238 0
      vertex -83.7324 -5.13726 0
    endloop
  endfacet
  facet normal -0 0 -1
    outer loop
      vertex -83.7324 -5.13726 0
      vertex -99.3798 -21.1238 0
      vertex -85.1373 -3.73244 0
    endloop
  endfacet
  facet normal 0 0 -1
    outer loop
      vertex -101.6 0 0
      vertex -85.1373 -3.73244 0
      vertex -99.3798 -21.1238 0
    endloop
  endfacet
  facet normal 0 0 -1
    outer loop
      vertex 50.8 -87.9882 0
      vertex 5.13726 -76.2676 0
      vertex 67.9837 -75.5035 0
    endloop
  endfacet
  facet normal 0 0 -1
    outer loop
      vertex 3.73244 -74.8627 0
      vertex 67.9837 -75.5035 0
      vertex 5.13726 -76.2676 0
    endloop
  endfacet
  facet normal 0 0 -1
    outer loop
      vertex 67.9837 -75.5035 0
      vertex 3.73244 -74.8627 0
      vertex 6.37347 -7.07845 0
    endloop
  endfacet
  facet normal 0 0 -1
    outer loop
      vertex 6.37347 -7.07845 0
      vertex 3.73244 -74.8627 0
      vertex 4.7625 -8.24889 0
    endloop
  endfacet
  facet normal 0 0 -1
    outer loop
      vertex 1.96226 -73.9608 0
      vertex 4.7625 -8.24889 0
      vertex 3.73244 -74.8627 0
    endloop
  endfacet
  facet normal 0 0 -1
    outer loop
      vertex 4.7625 -8.24889 0
      vertex 1.96226 -73.9608 0
      vertex 2.94339 -9.05881 0
    endloop
  endfacet
  facet normal 0 0 -1
    outer loop
      vertex 1.96226 -73.9608 0
      vertex 0.995633 -9.47282 0
      vertex 2.94339 -9.05881 0
    endloop
  endfacet
  facet normal 0 0 -1
    outer loop
      vertex 0 -73.65 0
      vertex 0.995633 -9.47282 0
      vertex 1.96226 -73.9608 0
    endloop
  endfacet
  facet normal 0 0 -1
    outer loop
      vertex 0 -73.65 0
      vertex -0.995633 -9.47282 0
      vertex 0.995633 -9.47282 0
    endloop
  endfacet
  facet normal 0 0 -1
    outer loop
      vertex -1.96226 -73.9608 0
      vertex -0.995633 -9.47282 0
      vertex 0 -73.65 0
    endloop
  endfacet
  facet normal 0 0 -1
    outer loop
      vertex -1.96226 -73.9608 0
      vertex -2.94339 -9.05881 0
      vertex -0.995633 -9.47282 0
    endloop
  endfacet
  facet normal 0 0 -1
    outer loop
      vertex -4.7625 -8.24889 0
      vertex -1.96226 -73.9608 0
      vertex -3.73244 -74.8627 0
    endloop
  endfacet
  facet normal 0 0 -1
    outer loop
      vertex -1.96226 -73.9608 0
      vertex -4.7625 -8.24889 0
      vertex -2.94339 -9.05881 0
    endloop
  endfacet
  facet normal 0 0 -1
    outer loop
      vertex -67.9837 -75.5035 0
      vertex -3.73244 -74.8627 0
      vertex -5.13726 -76.2676 0
    endloop
  endfacet
  facet normal 0 0 -1
    outer loop
      vertex -50.8 -87.9882 0
      vertex -6.03921 -78.0377 0
      vertex -31.3961 -96.6273 0
    endloop
  endfacet
  facet normal 0 0 -1
    outer loop
      vertex -31.3961 -96.6273 0
      vertex -6.03921 -78.0377 0
      vertex -6.35 -80 0
    endloop
  endfacet
  facet normal 0 0 -1
    outer loop
      vertex -3.73244 -74.8627 0
      vertex -6.37347 -7.07845 0
      vertex -4.7625 -8.24889 0
    endloop
  endfacet
  facet normal 0 0 -1
    outer loop
      vertex 85.1373 -3.73244 0
      vertex 101.6 0 0
      vertex 99.3798 -21.1238 0
    endloop
  endfacet
  facet normal 0 0 -1
    outer loop
      vertex 80 -6.35 0
      vertex 99.3798 -21.1238 0
      vertex 92.8162 -41.3244 0
    endloop
  endfacet
  facet normal -0 0 -1
    outer loop
      vertex 101.6 0 0
      vertex 86.0392 -1.96226 0
      vertex 86.35 0 0
    endloop
  endfacet
  facet normal 0 0 -1
    outer loop
      vertex 85.1373 3.73244 0
      vertex 101.6 0 0
      vertex 86.0392 1.96226 0
    endloop
  endfacet
  facet normal 0 0 -1
    outer loop
      vertex 86.0392 1.96226 0
      vertex 101.6 0 0
      vertex 86.35 0 0
    endloop
  endfacet
  facet normal 0 0 -1
    outer loop
      vertex 101.6 0 0
      vertex 85.1373 -3.73244 0
      vertex 86.0392 -1.96226 0
    endloop
  endfacet
  facet normal 0 0 -1
    outer loop
      vertex 99.3798 -21.1238 0
      vertex 83.7324 -5.13726 0
      vertex 85.1373 -3.73244 0
    endloop
  endfacet
  facet normal 0 0 -1
    outer loop
      vertex 76.2676 -5.13726 0
      vertex 92.8162 -41.3244 0
      vertex 82.1961 -59.719 0
    endloop
  endfacet
  facet normal 0 0 -1
    outer loop
      vertex 99.3798 -21.1238 0
      vertex 81.9623 -6.03921 0
      vertex 83.7324 -5.13726 0
    endloop
  endfacet
  facet normal 0 0 -1
    outer loop
      vertex 99.3798 -21.1238 0
      vertex 80 -6.35 0
      vertex 81.9623 -6.03921 0
    endloop
  endfacet
  facet normal 0 0 -1
    outer loop
      vertex 92.8162 -41.3244 0
      vertex 78.0377 -6.03921 0
      vertex 80 -6.35 0
    endloop
  endfacet
  facet normal 0 0 -1
    outer loop
      vertex 92.8162 -41.3244 0
      vertex 76.2676 -5.13726 0
      vertex 78.0377 -6.03921 0
    endloop
  endfacet
  facet normal 0 0 -1
    outer loop
      vertex 82.1961 -59.719 0
      vertex 74.8627 -3.73244 0
      vertex 76.2676 -5.13726 0
    endloop
  endfacet
  facet normal 0 0 -1
    outer loop
      vertex 7.70589 -5.59865 0
      vertex 74.8627 -3.73244 0
      vertex 82.1961 -59.719 0
    endloop
  endfacet
  facet normal 0 -0 -1
    outer loop
      vertex 8.70152 -3.87417 0
      vertex 74.8627 -3.73244 0
      vertex 7.70589 -5.59865 0
    endloop
  endfacet
  facet normal 0 0 -1
    outer loop
      vertex 7.70589 -5.59865 0
      vertex 82.1961 -59.719 0
      vertex 67.9837 -75.5035 0
    endloop
  endfacet
  facet normal 0 0 -1
    outer loop
      vertex 101.6 0 0
      vertex 85.1373 3.73244 0
      vertex 99.3798 21.1238 0
    endloop
  endfacet
  facet normal 0 0 -1
    outer loop
      vertex 83.7324 5.13726 0
      vertex 99.3798 21.1238 0
      vertex 85.1373 3.73244 0
    endloop
  endfacet
  facet normal 0 0 -1
    outer loop
      vertex 81.9623 6.03921 0
      vertex 99.3798 21.1238 0
      vertex 83.7324 5.13726 0
    endloop
  endfacet
  facet normal 0 0 -1
    outer loop
      vertex 80 6.35 0
      vertex 99.3798 21.1238 0
      vertex 81.9623 6.03921 0
    endloop
  endfacet
  facet normal -0 0 -1
    outer loop
      vertex 99.3798 21.1238 0
      vertex 80 6.35 0
      vertex 92.8162 41.3244 0
    endloop
  endfacet
  facet normal 0 0 -1
    outer loop
      vertex 78.0377 6.03921 0
      vertex 92.8162 41.3244 0
      vertex 80 6.35 0
    endloop
  endfacet
  facet normal 0 0 -1
    outer loop
      vertex 76.2676 5.13726 0
      vertex 92.8162 41.3244 0
      vertex 78.0377 6.03921 0
    endloop
  endfacet
  facet normal -0 0 -1
    outer loop
      vertex 92.8162 41.3244 0
      vertex 76.2676 5.13726 0
      vertex 82.1961 59.719 0
    endloop
  endfacet
  facet normal 0 0 -1
    outer loop
      vertex 74.8627 3.73244 0
      vertex 82.1961 59.719 0
      vertex 76.2676 5.13726 0
    endloop
  endfacet
  facet normal 0 0 -1
    outer loop
      vertex 73.65 0 0
      vertex 9.31686 1.98036 0
      vertex 73.9608 1.96226 0
    endloop
  endfacet
  facet normal 0 0 -1
    outer loop
      vertex 9.31686 1.98036 0
      vertex 73.65 0 0
      vertex 9.525 0 0
    endloop
  endfacet
  facet normal 0 0 -1
    outer loop
      vertex 8.70152 3.87417 0
      vertex 73.9608 1.96226 0
      vertex 9.31686 1.98036 0
    endloop
  endfacet
  facet normal -0 0 -1
    outer loop
      vertex 74.8627 -3.73244 0
      vertex 8.70152 -3.87417 0
      vertex 73.9608 -1.96226 0
    endloop
  endfacet
  facet normal 0 0 -1
    outer loop
      vertex 31.3961 -96.6273 0
      vertex 6.03921 -78.0377 0
      vertex 50.8 -87.9882 0
    endloop
  endfacet
  facet normal 0 0 -1
    outer loop
      vertex 73.9608 1.96226 0
      vertex 8.70152 3.87417 0
      vertex 74.8627 3.73244 0
    endloop
  endfacet
  facet normal 0 0 -1
    outer loop
      vertex 6.03921 -78.0377 0
      vertex 31.3961 -96.6273 0
      vertex 6.35 -80 0
    endloop
  endfacet
  facet normal 0 0 -1
    outer loop
      vertex 7.70589 5.59865 0
      vertex 74.8627 3.73244 0
      vertex 8.70152 3.87417 0
    endloop
  endfacet
  facet normal 0 0 -1
    outer loop
      vertex 6.03921 -81.9623 0
      vertex 31.3961 -96.6273 0
      vertex 10.6201 -101.043 0
    endloop
  endfacet
  facet normal 0 0 -1
    outer loop
      vertex 74.8627 3.73244 0
      vertex 7.70589 5.59865 0
      vertex 82.1961 59.719 0
    endloop
  endfacet
  facet normal -0 0 -1
    outer loop
      vertex 82.1961 59.719 0
      vertex 7.70589 5.59865 0
      vertex 67.9837 75.5035 0
    endloop
  endfacet
  facet normal -0 0 -1
    outer loop
      vertex 73.65 0 0
      vertex 9.31686 -1.98036 0
      vertex 9.525 0 0
    endloop
  endfacet
  facet normal 0 0 -1
    outer loop
      vertex 5.13726 -76.2676 0
      vertex 50.8 -87.9882 0
      vertex 6.03921 -78.0377 0
    endloop
  endfacet
  facet normal -0 0 -1
    outer loop
      vertex 73.9608 -1.96226 0
      vertex 9.31686 -1.98036 0
      vertex 73.65 0 0
    endloop
  endfacet
  facet normal 0 -0 -1
    outer loop
      vertex 9.31686 -1.98036 0
      vertex 73.9608 -1.96226 0
      vertex 8.70152 -3.87417 0
    endloop
  endfacet
  facet normal 0 0 -1
    outer loop
      vertex 67.9837 -75.5035 0
      vertex 6.37347 -7.07845 0
      vertex 7.70589 -5.59865 0
    endloop
  endfacet
  facet normal 0 0 -1
    outer loop
      vertex 31.3961 -96.6273 0
      vertex 6.03921 -81.9623 0
      vertex 6.35 -80 0
    endloop
  endfacet
  facet normal 0 0 -1
    outer loop
      vertex 10.6201 -101.043 0
      vertex 5.13726 -83.7324 0
      vertex 6.03921 -81.9623 0
    endloop
  endfacet
  facet normal 0 0 -1
    outer loop
      vertex 10.6201 -101.043 0
      vertex 3.73244 -85.1373 0
      vertex 5.13726 -83.7324 0
    endloop
  endfacet
  facet normal 0 0 -1
    outer loop
      vertex 10.6201 -101.043 0
      vertex 1.96226 -86.0392 0
      vertex 3.73244 -85.1373 0
    endloop
  endfacet
  facet normal 0 0 -1
    outer loop
      vertex 10.6201 -101.043 0
      vertex 0 -86.35 0
      vertex 1.96226 -86.0392 0
    endloop
  endfacet
  facet normal 0 0 -1
    outer loop
      vertex -10.6201 -101.043 0
      vertex 0 -86.35 0
      vertex 10.6201 -101.043 0
    endloop
  endfacet
  facet normal -0 0 -1
    outer loop
      vertex 0 -86.35 0
      vertex -10.6201 -101.043 0
      vertex -1.96226 -86.0392 0
    endloop
  endfacet
  facet normal -0 0 -1
    outer loop
      vertex -1.96226 -86.0392 0
      vertex -10.6201 -101.043 0
      vertex -3.73244 -85.1373 0
    endloop
  endfacet
  facet normal 0 0 -1
    outer loop
      vertex -67.9837 -75.5035 0
      vertex -5.13726 -76.2676 0
      vertex -50.8 -87.9882 0
    endloop
  endfacet
  facet normal -0 0 -1
    outer loop
      vertex -6.03921 -78.0377 0
      vertex -50.8 -87.9882 0
      vertex -5.13726 -76.2676 0
    endloop
  endfacet
  facet normal -0 0 -1
    outer loop
      vertex -3.73244 -74.8627 0
      vertex -67.9837 -75.5035 0
      vertex -6.37347 -7.07845 0
    endloop
  endfacet
  facet normal -0 0 -1
    outer loop
      vertex -6.03921 -81.9623 0
      vertex -31.3961 -96.6273 0
      vertex -6.35 -80 0
    endloop
  endfacet
  facet normal -0 0 -1
    outer loop
      vertex -6.37347 -7.07845 0
      vertex -67.9837 -75.5035 0
      vertex -7.70589 -5.59865 0
    endloop
  endfacet
  facet normal 0 0 -1
    outer loop
      vertex -31.3961 -96.6273 0
      vertex -6.03921 -81.9623 0
      vertex -10.6201 -101.043 0
    endloop
  endfacet
  facet normal -0 0 -1
    outer loop
      vertex -5.13726 -83.7324 0
      vertex -10.6201 -101.043 0
      vertex -6.03921 -81.9623 0
    endloop
  endfacet
  facet normal -0 0 -1
    outer loop
      vertex -3.73244 -85.1373 0
      vertex -10.6201 -101.043 0
      vertex -5.13726 -83.7324 0
    endloop
  endfacet
  facet normal 0.207912 -0.978148 0
    outer loop
      vertex 10.6201 -101.043 0
      vertex 31.3961 -96.6273 12.7
      vertex 10.6201 -101.043 12.7
    endloop
  endfacet
  facet normal 0.207912 -0.978148 0
    outer loop
      vertex 31.3961 -96.6273 12.7
      vertex 10.6201 -101.043 0
      vertex 31.3961 -96.6273 0
    endloop
  endfacet
  facet normal 0.587785 -0.809017 0
    outer loop
      vertex 50.8 -87.9882 0
      vertex 67.9837 -75.5035 12.7
      vertex 50.8 -87.9882 12.7
    endloop
  endfacet
  facet normal 0.587785 -0.809017 0
    outer loop
      vertex 67.9837 -75.5035 12.7
      vertex 50.8 -87.9882 0
      vertex 67.9837 -75.5035 0
    endloop
  endfacet
  facet normal 0.743145 -0.669131 0
    outer loop
      vertex 67.9837 -75.5035 12.7
      vertex 82.1961 -59.719 0
      vertex 82.1961 -59.719 12.7
    endloop
  endfacet
  facet normal 0.743145 -0.669131 0
    outer loop
      vertex 82.1961 -59.719 0
      vertex 67.9837 -75.5035 12.7
      vertex 67.9837 -75.5035 0
    endloop
  endfacet
  facet normal 0.951056 -0.309017 0
    outer loop
      vertex 92.8162 -41.3244 12.7
      vertex 99.3798 -21.1238 0
      vertex 99.3798 -21.1238 12.7
    endloop
  endfacet
  facet normal 0.951056 -0.309017 0
    outer loop
      vertex 99.3798 -21.1238 0
      vertex 92.8162 -41.3244 12.7
      vertex 92.8162 -41.3244 0
    endloop
  endfacet
  facet normal -0.587785 -0.809017 0
    outer loop
      vertex -67.9837 -75.5035 0
      vertex -50.8 -87.9882 12.7
      vertex -67.9837 -75.5035 12.7
    endloop
  endfacet
  facet normal -0.587785 -0.809017 -0
    outer loop
      vertex -50.8 -87.9882 12.7
      vertex -67.9837 -75.5035 0
      vertex -50.8 -87.9882 0
    endloop
  endfacet
  facet normal -0.866025 -0.5 0
    outer loop
      vertex -82.1961 -59.719 0
      vertex -92.8162 -41.3244 12.7
      vertex -92.8162 -41.3244 0
    endloop
  endfacet
  facet normal -0.866025 -0.5 0
    outer loop
      vertex -92.8162 -41.3244 12.7
      vertex -82.1961 -59.719 0
      vertex -82.1961 -59.719 12.7
    endloop
  endfacet
  facet normal -0.743145 -0.669131 0
    outer loop
      vertex -67.9837 -75.5035 0
      vertex -82.1961 -59.719 12.7
      vertex -82.1961 -59.719 0
    endloop
  endfacet
  facet normal -0.743145 -0.669131 0
    outer loop
      vertex -82.1961 -59.719 12.7
      vertex -67.9837 -75.5035 0
      vertex -67.9837 -75.5035 12.7
    endloop
  endfacet
  facet normal 0.406737 -0.913545 0
    outer loop
      vertex 31.3961 -96.6273 0
      vertex 50.8 -87.9882 12.7
      vertex 31.3961 -96.6273 12.7
    endloop
  endfacet
  facet normal 0.406737 -0.913545 0
    outer loop
      vertex 50.8 -87.9882 12.7
      vertex 31.3961 -96.6273 0
      vertex 50.8 -87.9882 0
    endloop
  endfacet
  facet normal -0.207912 -0.978148 0
    outer loop
      vertex -31.3961 -96.6273 0
      vertex -10.6201 -101.043 12.7
      vertex -31.3961 -96.6273 12.7
    endloop
  endfacet
  facet normal -0.207912 -0.978148 -0
    outer loop
      vertex -10.6201 -101.043 12.7
      vertex -31.3961 -96.6273 0
      vertex -10.6201 -101.043 0
    endloop
  endfacet
  facet normal -0.951056 -0.309017 0
    outer loop
      vertex -92.8162 -41.3244 0
      vertex -99.3798 -21.1238 12.7
      vertex -99.3798 -21.1238 0
    endloop
  endfacet
  facet normal -0.951056 -0.309017 0
    outer loop
      vertex -99.3798 -21.1238 12.7
      vertex -92.8162 -41.3244 0
      vertex -92.8162 -41.3244 12.7
    endloop
  endfacet
  facet normal -0.994522 -0.104528 0
    outer loop
      vertex -99.3798 -21.1238 0
      vertex -101.6 0 12.7
      vertex -101.6 0 0
    endloop
  endfacet
  facet normal -0.994522 -0.104528 0
    outer loop
      vertex -101.6 0 12.7
      vertex -99.3798 -21.1238 0
      vertex -99.3798 -21.1238 12.7
    endloop
  endfacet
  facet normal -0.406737 -0.913545 0
    outer loop
      vertex -50.8 -87.9882 0
      vertex -31.3961 -96.6273 12.7
      vertex -50.8 -87.9882 12.7
    endloop
  endfacet
  facet normal -0.406737 -0.913545 -0
    outer loop
      vertex -31.3961 -96.6273 12.7
      vertex -50.8 -87.9882 0
      vertex -31.3961 -96.6273 0
    endloop
  endfacet
  facet normal -0.994522 -0.104529 0
    outer loop
      vertex 9.525 0 0
      vertex 9.31686 1.98036 12.7
      vertex 9.31686 1.98036 0
    endloop
  endfacet
  facet normal -0.994522 -0.104529 0
    outer loop
      vertex 9.31686 1.98036 12.7
      vertex 9.525 0 0
      vertex 9.525 0 12.7
    endloop
  endfacet
  facet normal 0.994522 -0.104529 0
    outer loop
      vertex -9.525 0 12.7
      vertex -9.31686 1.98036 0
      vertex -9.31686 1.98036 12.7
    endloop
  endfacet
  facet normal 0.994522 -0.104529 0
    outer loop
      vertex -9.31686 1.98036 0
      vertex -9.525 0 12.7
      vertex -9.525 0 0
    endloop
  endfacet
  facet normal 0 -1 0
    outer loop
      vertex -0.995633 9.47282 0
      vertex 0.995633 9.47282 12.7
      vertex -0.995633 9.47282 12.7
    endloop
  endfacet
  facet normal 0 -1 -0
    outer loop
      vertex 0.995633 9.47282 12.7
      vertex -0.995633 9.47282 0
      vertex 0.995633 9.47282 0
    endloop
  endfacet
  facet normal -0.587785 -0.809017 0
    outer loop
      vertex 4.7625 8.24889 0
      vertex 6.37347 7.07845 12.7
      vertex 4.7625 8.24889 12.7
    endloop
  endfacet
  facet normal -0.587785 -0.809017 -0
    outer loop
      vertex 6.37347 7.07845 12.7
      vertex 4.7625 8.24889 0
      vertex 6.37347 7.07845 0
    endloop
  endfacet
  facet normal -0.406736 -0.913546 0
    outer loop
      vertex 2.94339 9.05881 0
      vertex 4.7625 8.24889 12.7
      vertex 2.94339 9.05881 12.7
    endloop
  endfacet
  facet normal -0.406736 -0.913546 -0
    outer loop
      vertex 4.7625 8.24889 12.7
      vertex 2.94339 9.05881 0
      vertex 4.7625 8.24889 0
    endloop
  endfacet
  facet normal 0.743145 -0.669131 0
    outer loop
      vertex -7.70589 5.59865 12.7
      vertex -6.37347 7.07845 0
      vertex -6.37347 7.07845 12.7
    endloop
  endfacet
  facet normal 0.743145 -0.669131 0
    outer loop
      vertex -6.37347 7.07845 0
      vertex -7.70589 5.59865 12.7
      vertex -7.70589 5.59865 0
    endloop
  endfacet
  facet normal 0.866025 -0.5 0
    outer loop
      vertex -8.70152 3.87417 12.7
      vertex -7.70589 5.59865 0
      vertex -7.70589 5.59865 12.7
    endloop
  endfacet
  facet normal 0.866025 -0.5 0
    outer loop
      vertex -7.70589 5.59865 0
      vertex -8.70152 3.87417 12.7
      vertex -8.70152 3.87417 0
    endloop
  endfacet
  facet normal 0.406736 -0.913546 0
    outer loop
      vertex -4.7625 8.24889 0
      vertex -2.94339 9.05881 12.7
      vertex -4.7625 8.24889 12.7
    endloop
  endfacet
  facet normal 0.406736 -0.913546 0
    outer loop
      vertex -2.94339 9.05881 12.7
      vertex -4.7625 8.24889 0
      vertex -2.94339 9.05881 0
    endloop
  endfacet
  facet normal -0.866025 -0.5 0
    outer loop
      vertex 8.70152 3.87417 0
      vertex 7.70589 5.59865 12.7
      vertex 7.70589 5.59865 0
    endloop
  endfacet
  facet normal -0.866025 -0.5 0
    outer loop
      vertex 7.70589 5.59865 12.7
      vertex 8.70152 3.87417 0
      vertex 8.70152 3.87417 12.7
    endloop
  endfacet
  facet normal -0.951057 -0.309017 0
    outer loop
      vertex 9.31686 1.98036 0
      vertex 8.70152 3.87417 12.7
      vertex 8.70152 3.87417 0
    endloop
  endfacet
  facet normal -0.951057 -0.309017 0
    outer loop
      vertex 8.70152 3.87417 12.7
      vertex 9.31686 1.98036 0
      vertex 9.31686 1.98036 12.7
    endloop
  endfacet
  facet normal -0.743145 -0.669131 0
    outer loop
      vertex 7.70589 5.59865 0
      vertex 6.37347 7.07845 12.7
      vertex 6.37347 7.07845 0
    endloop
  endfacet
  facet normal -0.743145 -0.669131 0
    outer loop
      vertex 6.37347 7.07845 12.7
      vertex 7.70589 5.59865 0
      vertex 7.70589 5.59865 12.7
    endloop
  endfacet
  facet normal -0.207911 -0.978148 0
    outer loop
      vertex 0.995633 9.47282 0
      vertex 2.94339 9.05881 12.7
      vertex 0.995633 9.47282 12.7
    endloop
  endfacet
  facet normal -0.207911 -0.978148 -0
    outer loop
      vertex 2.94339 9.05881 12.7
      vertex 0.995633 9.47282 0
      vertex 2.94339 9.05881 0
    endloop
  endfacet
  facet normal 0.951057 -0.309017 0
    outer loop
      vertex -9.31686 1.98036 12.7
      vertex -8.70152 3.87417 0
      vertex -8.70152 3.87417 12.7
    endloop
  endfacet
  facet normal 0.951057 -0.309017 0
    outer loop
      vertex -8.70152 3.87417 0
      vertex -9.31686 1.98036 12.7
      vertex -9.31686 1.98036 0
    endloop
  endfacet
  facet normal 0.587785 -0.809017 0
    outer loop
      vertex -6.37347 7.07845 0
      vertex -4.7625 8.24889 12.7
      vertex -6.37347 7.07845 12.7
    endloop
  endfacet
  facet normal 0.587785 -0.809017 0
    outer loop
      vertex -4.7625 8.24889 12.7
      vertex -6.37347 7.07845 0
      vertex -4.7625 8.24889 0
    endloop
  endfacet
  facet normal 0.207911 -0.978148 0
    outer loop
      vertex -2.94339 9.05881 0
      vertex -0.995633 9.47282 12.7
      vertex -2.94339 9.05881 12.7
    endloop
  endfacet
  facet normal 0.207911 -0.978148 0
    outer loop
      vertex -0.995633 9.47282 12.7
      vertex -2.94339 9.05881 0
      vertex -0.995633 9.47282 0
    endloop
  endfacet
  facet normal -0.994522 0.104529 0
    outer loop
      vertex 9.31686 -1.98036 0
      vertex 9.525 0 12.7
      vertex 9.525 0 0
    endloop
  endfacet
  facet normal -0.994522 0.104529 0
    outer loop
      vertex 9.525 0 12.7
      vertex 9.31686 -1.98036 0
      vertex 9.31686 -1.98036 12.7
    endloop
  endfacet
  facet normal 0.207911 0.978148 -0
    outer loop
      vertex -0.995633 -9.47282 0
      vertex -2.94339 -9.05881 12.7
      vertex -0.995633 -9.47282 12.7
    endloop
  endfacet
  facet normal 0.207911 0.978148 0
    outer loop
      vertex -2.94339 -9.05881 12.7
      vertex -0.995633 -9.47282 0
      vertex -2.94339 -9.05881 0
    endloop
  endfacet
  facet normal -0.207911 0.978148 0
    outer loop
      vertex 2.94339 -9.05881 0
      vertex 0.995633 -9.47282 12.7
      vertex 2.94339 -9.05881 12.7
    endloop
  endfacet
  facet normal -0.207911 0.978148 0
    outer loop
      vertex 0.995633 -9.47282 12.7
      vertex 2.94339 -9.05881 0
      vertex 0.995633 -9.47282 0
    endloop
  endfacet
  facet normal -0.743145 0.669131 0
    outer loop
      vertex 6.37347 -7.07845 0
      vertex 7.70589 -5.59865 12.7
      vertex 7.70589 -5.59865 0
    endloop
  endfacet
  facet normal -0.743145 0.669131 0
    outer loop
      vertex 7.70589 -5.59865 12.7
      vertex 6.37347 -7.07845 0
      vertex 6.37347 -7.07845 12.7
    endloop
  endfacet
  facet normal -0.951057 0.309017 0
    outer loop
      vertex 8.70152 -3.87417 0
      vertex 9.31686 -1.98036 12.7
      vertex 9.31686 -1.98036 0
    endloop
  endfacet
  facet normal -0.951057 0.309017 0
    outer loop
      vertex 9.31686 -1.98036 12.7
      vertex 8.70152 -3.87417 0
      vertex 8.70152 -3.87417 12.7
    endloop
  endfacet
  facet normal -0.866025 0.5 0
    outer loop
      vertex 7.70589 -5.59865 0
      vertex 8.70152 -3.87417 12.7
      vertex 8.70152 -3.87417 0
    endloop
  endfacet
  facet normal -0.866025 0.5 0
    outer loop
      vertex 8.70152 -3.87417 12.7
      vertex 7.70589 -5.59865 0
      vertex 7.70589 -5.59865 12.7
    endloop
  endfacet
  facet normal 0.866025 0.5 0
    outer loop
      vertex -7.70589 -5.59865 12.7
      vertex -8.70152 -3.87417 0
      vertex -8.70152 -3.87417 12.7
    endloop
  endfacet
  facet normal 0.866025 0.5 0
    outer loop
      vertex -8.70152 -3.87417 0
      vertex -7.70589 -5.59865 12.7
      vertex -7.70589 -5.59865 0
    endloop
  endfacet
  facet normal 0.994522 0.104529 0
    outer loop
      vertex -9.31686 -1.98036 12.7
      vertex -9.525 0 0
      vertex -9.525 0 12.7
    endloop
  endfacet
  facet normal 0.994522 0.104529 0
    outer loop
      vertex -9.525 0 0
      vertex -9.31686 -1.98036 12.7
      vertex -9.31686 -1.98036 0
    endloop
  endfacet
  facet normal 0.951057 0.309017 0
    outer loop
      vertex -8.70152 -3.87417 12.7
      vertex -9.31686 -1.98036 0
      vertex -9.31686 -1.98036 12.7
    endloop
  endfacet
  facet normal 0.951057 0.309017 0
    outer loop
      vertex -9.31686 -1.98036 0
      vertex -8.70152 -3.87417 12.7
      vertex -8.70152 -3.87417 0
    endloop
  endfacet
  facet normal -0.587785 0.809017 0
    outer loop
      vertex 6.37347 -7.07845 0
      vertex 4.7625 -8.24889 12.7
      vertex 6.37347 -7.07845 12.7
    endloop
  endfacet
  facet normal -0.587785 0.809017 0
    outer loop
      vertex 4.7625 -8.24889 12.7
      vertex 6.37347 -7.07845 0
      vertex 4.7625 -8.24889 0
    endloop
  endfacet
  facet normal -0.406736 0.913546 0
    outer loop
      vertex 4.7625 -8.24889 0
      vertex 2.94339 -9.05881 12.7
      vertex 4.7625 -8.24889 12.7
    endloop
  endfacet
  facet normal -0.406736 0.913546 0
    outer loop
      vertex 2.94339 -9.05881 12.7
      vertex 4.7625 -8.24889 0
      vertex 2.94339 -9.05881 0
    endloop
  endfacet
  facet normal 0 1 -0
    outer loop
      vertex 0.995633 -9.47282 0
      vertex -0.995633 -9.47282 12.7
      vertex 0.995633 -9.47282 12.7
    endloop
  endfacet
  facet normal 0 1 0
    outer loop
      vertex -0.995633 -9.47282 12.7
      vertex 0.995633 -9.47282 0
      vertex -0.995633 -9.47282 0
    endloop
  endfacet
  facet normal 0.406736 0.913546 -0
    outer loop
      vertex -2.94339 -9.05881 0
      vertex -4.7625 -8.24889 12.7
      vertex -2.94339 -9.05881 12.7
    endloop
  endfacet
  facet normal 0.406736 0.913546 0
    outer loop
      vertex -4.7625 -8.24889 12.7
      vertex -2.94339 -9.05881 0
      vertex -4.7625 -8.24889 0
    endloop
  endfacet
  facet normal 0.743145 0.669131 0
    outer loop
      vertex -6.37347 -7.07845 12.7
      vertex -7.70589 -5.59865 0
      vertex -7.70589 -5.59865 12.7
    endloop
  endfacet
  facet normal 0.743145 0.669131 0
    outer loop
      vertex -7.70589 -5.59865 0
      vertex -6.37347 -7.07845 12.7
      vertex -6.37347 -7.07845 0
    endloop
  endfacet
  facet normal 0.587785 0.809017 -0
    outer loop
      vertex -4.7625 -8.24889 0
      vertex -6.37347 -7.07845 12.7
      vertex -4.7625 -8.24889 12.7
    endloop
  endfacet
  facet normal 0.587785 0.809017 0
    outer loop
      vertex -6.37347 -7.07845 12.7
      vertex -4.7625 -8.24889 0
      vertex -6.37347 -7.07845 0
    endloop
  endfacet
  facet normal -0.987688 -0.156434 0
    outer loop
      vertex 86.35 0 0
      vertex 86.0392 1.96226 12.7
      vertex 86.0392 1.96226 0
    endloop
  endfacet
  facet normal -0.987688 -0.156434 0
    outer loop
      vertex 86.0392 1.96226 12.7
      vertex 86.35 0 0
      vertex 86.35 0 12.7
    endloop
  endfacet
  facet normal 0.987688 -0.156434 0
    outer loop
      vertex 73.65 0 12.7
      vertex 73.9608 1.96226 0
      vertex 73.9608 1.96226 12.7
    endloop
  endfacet
  facet normal 0.987688 -0.156434 0
    outer loop
      vertex 73.9608 1.96226 0
      vertex 73.65 0 12.7
      vertex 73.65 0 0
    endloop
  endfacet
  facet normal 0.156434 -0.987688 0
    outer loop
      vertex 78.0377 6.03921 0
      vertex 80 6.35 12.7
      vertex 78.0377 6.03921 12.7
    endloop
  endfacet
  facet normal 0.156434 -0.987688 0
    outer loop
      vertex 80 6.35 12.7
      vertex 78.0377 6.03921 0
      vertex 80 6.35 0
    endloop
  endfacet
  facet normal -0.707106 -0.707107 0
    outer loop
      vertex 83.7324 5.13726 0
      vertex 85.1373 3.73244 12.7
      vertex 83.7324 5.13726 12.7
    endloop
  endfacet
  facet normal -0.707106 -0.707107 -0
    outer loop
      vertex 85.1373 3.73244 12.7
      vertex 83.7324 5.13726 0
      vertex 85.1373 3.73244 0
    endloop
  endfacet
  facet normal -0.891007 -0.453989 0
    outer loop
      vertex 86.0392 1.96226 0
      vertex 85.1373 3.73244 12.7
      vertex 85.1373 3.73244 0
    endloop
  endfacet
  facet normal -0.891007 -0.453989 0
    outer loop
      vertex 85.1373 3.73244 12.7
      vertex 86.0392 1.96226 0
      vertex 86.0392 1.96226 12.7
    endloop
  endfacet
  facet normal 0.707106 -0.707107 0
    outer loop
      vertex 74.8627 3.73244 0
      vertex 76.2676 5.13726 12.7
      vertex 74.8627 3.73244 12.7
    endloop
  endfacet
  facet normal 0.707106 -0.707107 0
    outer loop
      vertex 76.2676 5.13726 12.7
      vertex 74.8627 3.73244 0
      vertex 76.2676 5.13726 0
    endloop
  endfacet
  facet normal 0.891007 -0.453989 0
    outer loop
      vertex 73.9608 1.96226 12.7
      vertex 74.8627 3.73244 0
      vertex 74.8627 3.73244 12.7
    endloop
  endfacet
  facet normal 0.891007 -0.453989 0
    outer loop
      vertex 74.8627 3.73244 0
      vertex 73.9608 1.96226 12.7
      vertex 73.9608 1.96226 0
    endloop
  endfacet
  facet normal 0.45399 -0.891007 0
    outer loop
      vertex 76.2676 5.13726 0
      vertex 78.0377 6.03921 12.7
      vertex 76.2676 5.13726 12.7
    endloop
  endfacet
  facet normal 0.45399 -0.891007 0
    outer loop
      vertex 78.0377 6.03921 12.7
      vertex 76.2676 5.13726 0
      vertex 78.0377 6.03921 0
    endloop
  endfacet
  facet normal -0.891007 0.453989 0
    outer loop
      vertex 85.1373 -3.73244 0
      vertex 86.0392 -1.96226 12.7
      vertex 86.0392 -1.96226 0
    endloop
  endfacet
  facet normal -0.891007 0.453989 0
    outer loop
      vertex 86.0392 -1.96226 12.7
      vertex 85.1373 -3.73244 0
      vertex 85.1373 -3.73244 12.7
    endloop
  endfacet
  facet normal 0.45399 0.891007 -0
    outer loop
      vertex 78.0377 -6.03921 0
      vertex 76.2676 -5.13726 12.7
      vertex 78.0377 -6.03921 12.7
    endloop
  endfacet
  facet normal 0.45399 0.891007 0
    outer loop
      vertex 76.2676 -5.13726 12.7
      vertex 78.0377 -6.03921 0
      vertex 76.2676 -5.13726 0
    endloop
  endfacet
  facet normal -0.156434 -0.987688 0
    outer loop
      vertex 80 6.35 0
      vertex 81.9623 6.03921 12.7
      vertex 80 6.35 12.7
    endloop
  endfacet
  facet normal -0.156434 -0.987688 -0
    outer loop
      vertex 81.9623 6.03921 12.7
      vertex 80 6.35 0
      vertex 81.9623 6.03921 0
    endloop
  endfacet
  facet normal -0.45399 -0.891007 0
    outer loop
      vertex 81.9623 6.03921 0
      vertex 83.7324 5.13726 12.7
      vertex 81.9623 6.03921 12.7
    endloop
  endfacet
  facet normal -0.45399 -0.891007 -0
    outer loop
      vertex 83.7324 5.13726 12.7
      vertex 81.9623 6.03921 0
      vertex 83.7324 5.13726 0
    endloop
  endfacet
  facet normal -0.987688 0.156434 0
    outer loop
      vertex 86.0392 -1.96226 0
      vertex 86.35 0 12.7
      vertex 86.35 0 0
    endloop
  endfacet
  facet normal -0.987688 0.156434 0
    outer loop
      vertex 86.35 0 12.7
      vertex 86.0392 -1.96226 0
      vertex 86.0392 -1.96226 12.7
    endloop
  endfacet
  facet normal -0.156434 0.987688 0
    outer loop
      vertex 81.9623 -6.03921 0
      vertex 80 -6.35 12.7
      vertex 81.9623 -6.03921 12.7
    endloop
  endfacet
  facet normal -0.156434 0.987688 0
    outer loop
      vertex 80 -6.35 12.7
      vertex 81.9623 -6.03921 0
      vertex 80 -6.35 0
    endloop
  endfacet
  facet normal -0.707106 0.707107 0
    outer loop
      vertex 85.1373 -3.73244 0
      vertex 83.7324 -5.13726 12.7
      vertex 85.1373 -3.73244 12.7
    endloop
  endfacet
  facet normal -0.707106 0.707107 0
    outer loop
      vertex 83.7324 -5.13726 12.7
      vertex 85.1373 -3.73244 0
      vertex 83.7324 -5.13726 0
    endloop
  endfacet
  facet normal 0.156434 0.987688 -0
    outer loop
      vertex 80 -6.35 0
      vertex 78.0377 -6.03921 12.7
      vertex 80 -6.35 12.7
    endloop
  endfacet
  facet normal 0.156434 0.987688 0
    outer loop
      vertex 78.0377 -6.03921 12.7
      vertex 80 -6.35 0
      vertex 78.0377 -6.03921 0
    endloop
  endfacet
  facet normal 0.707106 0.707107 -0
    outer loop
      vertex 76.2676 -5.13726 0
      vertex 74.8627 -3.73244 12.7
      vertex 76.2676 -5.13726 12.7
    endloop
  endfacet
  facet normal 0.707106 0.707107 0
    outer loop
      vertex 74.8627 -3.73244 12.7
      vertex 76.2676 -5.13726 0
      vertex 74.8627 -3.73244 0
    endloop
  endfacet
  facet normal 0.987688 0.156434 0
    outer loop
      vertex 73.9608 -1.96226 12.7
      vertex 73.65 0 0
      vertex 73.65 0 12.7
    endloop
  endfacet
  facet normal 0.987688 0.156434 0
    outer loop
      vertex 73.65 0 0
      vertex 73.9608 -1.96226 12.7
      vertex 73.9608 -1.96226 0
    endloop
  endfacet
  facet normal -0.45399 0.891007 0
    outer loop
      vertex 83.7324 -5.13726 0
      vertex 81.9623 -6.03921 12.7
      vertex 83.7324 -5.13726 12.7
    endloop
  endfacet
  facet normal -0.45399 0.891007 0
    outer loop
      vertex 81.9623 -6.03921 12.7
      vertex 83.7324 -5.13726 0
      vertex 81.9623 -6.03921 0
    endloop
  endfacet
  facet normal 0.891007 0.453989 0
    outer loop
      vertex 74.8627 -3.73244 12.7
      vertex 73.9608 -1.96226 0
      vertex 73.9608 -1.96226 12.7
    endloop
  endfacet
  facet normal 0.891007 0.453989 0
    outer loop
      vertex 73.9608 -1.96226 0
      vertex 74.8627 -3.73244 12.7
      vertex 74.8627 -3.73244 0
    endloop
  endfacet
  facet normal -0.987688 -0.156434 0
    outer loop
      vertex -73.65 0 0
      vertex -73.9608 1.96226 12.7
      vertex -73.9608 1.96226 0
    endloop
  endfacet
  facet normal -0.987688 -0.156434 0
    outer loop
      vertex -73.9608 1.96226 12.7
      vertex -73.65 0 0
      vertex -73.65 0 12.7
    endloop
  endfacet
  facet normal 0.987688 -0.156434 0
    outer loop
      vertex -86.35 0 12.7
      vertex -86.0392 1.96226 0
      vertex -86.0392 1.96226 12.7
    endloop
  endfacet
  facet normal 0.987688 -0.156434 0
    outer loop
      vertex -86.0392 1.96226 0
      vertex -86.35 0 12.7
      vertex -86.35 0 0
    endloop
  endfacet
  facet normal -0.156434 -0.987688 0
    outer loop
      vertex -80 6.35 0
      vertex -78.0377 6.03921 12.7
      vertex -80 6.35 12.7
    endloop
  endfacet
  facet normal -0.156434 -0.987688 -0
    outer loop
      vertex -78.0377 6.03921 12.7
      vertex -80 6.35 0
      vertex -78.0377 6.03921 0
    endloop
  endfacet
  facet normal -0.156434 0.987688 0
    outer loop
      vertex -78.0377 -6.03921 0
      vertex -80 -6.35 12.7
      vertex -78.0377 -6.03921 12.7
    endloop
  endfacet
  facet normal -0.156434 0.987688 0
    outer loop
      vertex -80 -6.35 12.7
      vertex -78.0377 -6.03921 0
      vertex -80 -6.35 0
    endloop
  endfacet
  facet normal -0.45399 0.891007 0
    outer loop
      vertex -76.2676 -5.13726 0
      vertex -78.0377 -6.03921 12.7
      vertex -76.2676 -5.13726 12.7
    endloop
  endfacet
  facet normal -0.45399 0.891007 0
    outer loop
      vertex -78.0377 -6.03921 12.7
      vertex -76.2676 -5.13726 0
      vertex -78.0377 -6.03921 0
    endloop
  endfacet
  facet normal -0.707106 -0.707107 0
    outer loop
      vertex -76.2676 5.13726 0
      vertex -74.8627 3.73244 12.7
      vertex -76.2676 5.13726 12.7
    endloop
  endfacet
  facet normal -0.707106 -0.707107 -0
    outer loop
      vertex -74.8627 3.73244 12.7
      vertex -76.2676 5.13726 0
      vertex -74.8627 3.73244 0
    endloop
  endfacet
  facet normal -0.891007 -0.453989 0
    outer loop
      vertex -73.9608 1.96226 0
      vertex -74.8627 3.73244 12.7
      vertex -74.8627 3.73244 0
    endloop
  endfacet
  facet normal -0.891007 -0.453989 0
    outer loop
      vertex -74.8627 3.73244 12.7
      vertex -73.9608 1.96226 0
      vertex -73.9608 1.96226 12.7
    endloop
  endfacet
  facet normal -0.45399 -0.891007 0
    outer loop
      vertex -78.0377 6.03921 0
      vertex -76.2676 5.13726 12.7
      vertex -78.0377 6.03921 12.7
    endloop
  endfacet
  facet normal -0.45399 -0.891007 -0
    outer loop
      vertex -76.2676 5.13726 12.7
      vertex -78.0377 6.03921 0
      vertex -76.2676 5.13726 0
    endloop
  endfacet
  facet normal 0.45399 -0.891007 0
    outer loop
      vertex -83.7324 5.13726 0
      vertex -81.9623 6.03921 12.7
      vertex -83.7324 5.13726 12.7
    endloop
  endfacet
  facet normal 0.45399 -0.891007 0
    outer loop
      vertex -81.9623 6.03921 12.7
      vertex -83.7324 5.13726 0
      vertex -81.9623 6.03921 0
    endloop
  endfacet
  facet normal 0.707106 -0.707107 0
    outer loop
      vertex -85.1373 3.73244 0
      vertex -83.7324 5.13726 12.7
      vertex -85.1373 3.73244 12.7
    endloop
  endfacet
  facet normal 0.707106 -0.707107 0
    outer loop
      vertex -83.7324 5.13726 12.7
      vertex -85.1373 3.73244 0
      vertex -83.7324 5.13726 0
    endloop
  endfacet
  facet normal 0.156434 -0.987688 0
    outer loop
      vertex -81.9623 6.03921 0
      vertex -80 6.35 12.7
      vertex -81.9623 6.03921 12.7
    endloop
  endfacet
  facet normal 0.156434 -0.987688 0
    outer loop
      vertex -80 6.35 12.7
      vertex -81.9623 6.03921 0
      vertex -80 6.35 0
    endloop
  endfacet
  facet normal 0.707106 0.707107 -0
    outer loop
      vertex -83.7324 -5.13726 0
      vertex -85.1373 -3.73244 12.7
      vertex -83.7324 -5.13726 12.7
    endloop
  endfacet
  facet normal 0.707106 0.707107 0
    outer loop
      vertex -85.1373 -3.73244 12.7
      vertex -83.7324 -5.13726 0
      vertex -85.1373 -3.73244 0
    endloop
  endfacet
  facet normal -0.891007 0.453989 0
    outer loop
      vertex -74.8627 -3.73244 0
      vertex -73.9608 -1.96226 12.7
      vertex -73.9608 -1.96226 0
    endloop
  endfacet
  facet normal -0.891007 0.453989 0
    outer loop
      vertex -73.9608 -1.96226 12.7
      vertex -74.8627 -3.73244 0
      vertex -74.8627 -3.73244 12.7
    endloop
  endfacet
  facet normal 0.891007 -0.453989 0
    outer loop
      vertex -86.0392 1.96226 12.7
      vertex -85.1373 3.73244 0
      vertex -85.1373 3.73244 12.7
    endloop
  endfacet
  facet normal 0.891007 -0.453989 0
    outer loop
      vertex -85.1373 3.73244 0
      vertex -86.0392 1.96226 12.7
      vertex -86.0392 1.96226 0
    endloop
  endfacet
  facet normal -0.987688 0.156434 0
    outer loop
      vertex -73.9608 -1.96226 0
      vertex -73.65 0 12.7
      vertex -73.65 0 0
    endloop
  endfacet
  facet normal -0.987688 0.156434 0
    outer loop
      vertex -73.65 0 12.7
      vertex -73.9608 -1.96226 0
      vertex -73.9608 -1.96226 12.7
    endloop
  endfacet
  facet normal -0.707106 0.707107 0
    outer loop
      vertex -74.8627 -3.73244 0
      vertex -76.2676 -5.13726 12.7
      vertex -74.8627 -3.73244 12.7
    endloop
  endfacet
  facet normal -0.707106 0.707107 0
    outer loop
      vertex -76.2676 -5.13726 12.7
      vertex -74.8627 -3.73244 0
      vertex -76.2676 -5.13726 0
    endloop
  endfacet
  facet normal 0.45399 0.891007 -0
    outer loop
      vertex -81.9623 -6.03921 0
      vertex -83.7324 -5.13726 12.7
      vertex -81.9623 -6.03921 12.7
    endloop
  endfacet
  facet normal 0.45399 0.891007 0
    outer loop
      vertex -83.7324 -5.13726 12.7
      vertex -81.9623 -6.03921 0
      vertex -83.7324 -5.13726 0
    endloop
  endfacet
  facet normal 0.156434 0.987688 -0
    outer loop
      vertex -80 -6.35 0
      vertex -81.9623 -6.03921 12.7
      vertex -80 -6.35 12.7
    endloop
  endfacet
  facet normal 0.156434 0.987688 0
    outer loop
      vertex -81.9623 -6.03921 12.7
      vertex -80 -6.35 0
      vertex -81.9623 -6.03921 0
    endloop
  endfacet
  facet normal 0.891007 0.453989 0
    outer loop
      vertex -85.1373 -3.73244 12.7
      vertex -86.0392 -1.96226 0
      vertex -86.0392 -1.96226 12.7
    endloop
  endfacet
  facet normal 0.891007 0.453989 0
    outer loop
      vertex -86.0392 -1.96226 0
      vertex -85.1373 -3.73244 12.7
      vertex -85.1373 -3.73244 0
    endloop
  endfacet
  facet normal 0.987688 0.156434 0
    outer loop
      vertex -86.0392 -1.96226 12.7
      vertex -86.35 0 0
      vertex -86.35 0 12.7
    endloop
  endfacet
  facet normal 0.987688 0.156434 0
    outer loop
      vertex -86.35 0 0
      vertex -86.0392 -1.96226 12.7
      vertex -86.0392 -1.96226 0
    endloop
  endfacet
  facet normal -0.987688 -0.156434 0
    outer loop
      vertex 6.35 80 0
      vertex 6.03921 81.9623 12.7
      vertex 6.03921 81.9623 0
    endloop
  endfacet
  facet normal -0.987688 -0.156434 0
    outer loop
      vertex 6.03921 81.9623 12.7
      vertex 6.35 80 0
      vertex 6.35 80 12.7
    endloop
  endfacet
  facet normal 0.156434 -0.987688 0
    outer loop
      vertex -1.96226 86.0392 0
      vertex 0 86.35 12.7
      vertex -1.96226 86.0392 12.7
    endloop
  endfacet
  facet normal 0.156434 -0.987688 0
    outer loop
      vertex 0 86.35 12.7
      vertex -1.96226 86.0392 0
      vertex 0 86.35 0
    endloop
  endfacet
  facet normal -0.156434 0.987688 0
    outer loop
      vertex 1.96226 73.9608 0
      vertex 0 73.65 12.7
      vertex 1.96226 73.9608 12.7
    endloop
  endfacet
  facet normal -0.156434 0.987688 0
    outer loop
      vertex 0 73.65 12.7
      vertex 1.96226 73.9608 0
      vertex 0 73.65 0
    endloop
  endfacet
  facet normal -0.707107 -0.707106 0
    outer loop
      vertex 5.13726 83.7324 0
      vertex 3.73244 85.1373 12.7
      vertex 3.73244 85.1373 0
    endloop
  endfacet
  facet normal -0.707107 -0.707106 0
    outer loop
      vertex 3.73244 85.1373 12.7
      vertex 5.13726 83.7324 0
      vertex 5.13726 83.7324 12.7
    endloop
  endfacet
  facet normal -0.891007 -0.45399 0
    outer loop
      vertex 6.03921 81.9623 0
      vertex 5.13726 83.7324 12.7
      vertex 5.13726 83.7324 0
    endloop
  endfacet
  facet normal -0.891007 -0.45399 0
    outer loop
      vertex 5.13726 83.7324 12.7
      vertex 6.03921 81.9623 0
      vertex 6.03921 81.9623 12.7
    endloop
  endfacet
  facet normal -0.453989 -0.891007 0
    outer loop
      vertex 1.96226 86.0392 0
      vertex 3.73244 85.1373 12.7
      vertex 1.96226 86.0392 12.7
    endloop
  endfacet
  facet normal -0.453989 -0.891007 -0
    outer loop
      vertex 3.73244 85.1373 12.7
      vertex 1.96226 86.0392 0
      vertex 3.73244 85.1373 0
    endloop
  endfacet
  facet normal 0.707107 -0.707106 0
    outer loop
      vertex -5.13726 83.7324 12.7
      vertex -3.73244 85.1373 0
      vertex -3.73244 85.1373 12.7
    endloop
  endfacet
  facet normal 0.707107 -0.707106 0
    outer loop
      vertex -3.73244 85.1373 0
      vertex -5.13726 83.7324 12.7
      vertex -5.13726 83.7324 0
    endloop
  endfacet
  facet normal 0.453989 -0.891007 0
    outer loop
      vertex -3.73244 85.1373 0
      vertex -1.96226 86.0392 12.7
      vertex -3.73244 85.1373 12.7
    endloop
  endfacet
  facet normal 0.453989 -0.891007 0
    outer loop
      vertex -1.96226 86.0392 12.7
      vertex -3.73244 85.1373 0
      vertex -1.96226 86.0392 0
    endloop
  endfacet
  facet normal -0.453989 0.891007 0
    outer loop
      vertex 3.73244 74.8627 0
      vertex 1.96226 73.9608 12.7
      vertex 3.73244 74.8627 12.7
    endloop
  endfacet
  facet normal -0.453989 0.891007 0
    outer loop
      vertex 1.96226 73.9608 12.7
      vertex 3.73244 74.8627 0
      vertex 1.96226 73.9608 0
    endloop
  endfacet
  facet normal -0.891007 0.45399 0
    outer loop
      vertex 5.13726 76.2676 0
      vertex 6.03921 78.0377 12.7
      vertex 6.03921 78.0377 0
    endloop
  endfacet
  facet normal -0.891007 0.45399 0
    outer loop
      vertex 6.03921 78.0377 12.7
      vertex 5.13726 76.2676 0
      vertex 5.13726 76.2676 12.7
    endloop
  endfacet
  facet normal 0.453989 0.891007 -0
    outer loop
      vertex -1.96226 73.9608 0
      vertex -3.73244 74.8627 12.7
      vertex -1.96226 73.9608 12.7
    endloop
  endfacet
  facet normal 0.453989 0.891007 0
    outer loop
      vertex -3.73244 74.8627 12.7
      vertex -1.96226 73.9608 0
      vertex -3.73244 74.8627 0
    endloop
  endfacet
  facet normal 0.891007 0.45399 0
    outer loop
      vertex -5.13726 76.2676 12.7
      vertex -6.03921 78.0377 0
      vertex -6.03921 78.0377 12.7
    endloop
  endfacet
  facet normal 0.891007 0.45399 0
    outer loop
      vertex -6.03921 78.0377 0
      vertex -5.13726 76.2676 12.7
      vertex -5.13726 76.2676 0
    endloop
  endfacet
  facet normal -0.156434 -0.987688 0
    outer loop
      vertex 0 86.35 0
      vertex 1.96226 86.0392 12.7
      vertex 0 86.35 12.7
    endloop
  endfacet
  facet normal -0.156434 -0.987688 -0
    outer loop
      vertex 1.96226 86.0392 12.7
      vertex 0 86.35 0
      vertex 1.96226 86.0392 0
    endloop
  endfacet
  facet normal 0.891007 -0.45399 0
    outer loop
      vertex -6.03921 81.9623 12.7
      vertex -5.13726 83.7324 0
      vertex -5.13726 83.7324 12.7
    endloop
  endfacet
  facet normal 0.891007 -0.45399 0
    outer loop
      vertex -5.13726 83.7324 0
      vertex -6.03921 81.9623 12.7
      vertex -6.03921 81.9623 0
    endloop
  endfacet
  facet normal 0.987688 -0.156434 0
    outer loop
      vertex -6.35 80 12.7
      vertex -6.03921 81.9623 0
      vertex -6.03921 81.9623 12.7
    endloop
  endfacet
  facet normal 0.987688 -0.156434 0
    outer loop
      vertex -6.03921 81.9623 0
      vertex -6.35 80 12.7
      vertex -6.35 80 0
    endloop
  endfacet
  facet normal 0.987688 0.156434 0
    outer loop
      vertex -6.03921 78.0377 12.7
      vertex -6.35 80 0
      vertex -6.35 80 12.7
    endloop
  endfacet
  facet normal 0.987688 0.156434 0
    outer loop
      vertex -6.35 80 0
      vertex -6.03921 78.0377 12.7
      vertex -6.03921 78.0377 0
    endloop
  endfacet
  facet normal -0.987688 0.156434 0
    outer loop
      vertex 6.03921 78.0377 0
      vertex 6.35 80 12.7
      vertex 6.35 80 0
    endloop
  endfacet
  facet normal -0.987688 0.156434 0
    outer loop
      vertex 6.35 80 12.7
      vertex 6.03921 78.0377 0
      vertex 6.03921 78.0377 12.7
    endloop
  endfacet
  facet normal -0.707107 0.707106 0
    outer loop
      vertex 3.73244 74.8627 0
      vertex 5.13726 76.2676 12.7
      vertex 5.13726 76.2676 0
    endloop
  endfacet
  facet normal -0.707107 0.707106 0
    outer loop
      vertex 5.13726 76.2676 12.7
      vertex 3.73244 74.8627 0
      vertex 3.73244 74.8627 12.7
    endloop
  endfacet
  facet normal 0.156434 0.987688 -0
    outer loop
      vertex 0 73.65 0
      vertex -1.96226 73.9608 12.7
      vertex 0 73.65 12.7
    endloop
  endfacet
  facet normal 0.156434 0.987688 0
    outer loop
      vertex -1.96226 73.9608 12.7
      vertex 0 73.65 0
      vertex -1.96226 73.9608 0
    endloop
  endfacet
  facet normal 0.707107 0.707106 0
    outer loop
      vertex -3.73244 74.8627 12.7
      vertex -5.13726 76.2676 0
      vertex -5.13726 76.2676 12.7
    endloop
  endfacet
  facet normal 0.707107 0.707106 0
    outer loop
      vertex -5.13726 76.2676 0
      vertex -3.73244 74.8627 12.7
      vertex -3.73244 74.8627 0
    endloop
  endfacet
  facet normal -0.987688 -0.156434 0
    outer loop
      vertex 6.35 -80 0
      vertex 6.03921 -78.0377 12.7
      vertex 6.03921 -78.0377 0
    endloop
  endfacet
  facet normal -0.987688 -0.156434 0
    outer loop
      vertex 6.03921 -78.0377 12.7
      vertex 6.35 -80 0
      vertex 6.35 -80 12.7
    endloop
  endfacet
  facet normal 0.987688 -0.156434 0
    outer loop
      vertex -6.35 -80 12.7
      vertex -6.03921 -78.0377 0
      vertex -6.03921 -78.0377 12.7
    endloop
  endfacet
  facet normal 0.987688 -0.156434 0
    outer loop
      vertex -6.03921 -78.0377 0
      vertex -6.35 -80 12.7
      vertex -6.35 -80 0
    endloop
  endfacet
  facet normal 0.156434 -0.987688 0
    outer loop
      vertex -1.96226 -73.9608 0
      vertex 0 -73.65 12.7
      vertex -1.96226 -73.9608 12.7
    endloop
  endfacet
  facet normal 0.156434 -0.987688 0
    outer loop
      vertex 0 -73.65 12.7
      vertex -1.96226 -73.9608 0
      vertex 0 -73.65 0
    endloop
  endfacet
  facet normal -0.156434 0.987688 0
    outer loop
      vertex 1.96226 -86.0392 0
      vertex 0 -86.35 12.7
      vertex 1.96226 -86.0392 12.7
    endloop
  endfacet
  facet normal -0.156434 0.987688 0
    outer loop
      vertex 0 -86.35 12.7
      vertex 1.96226 -86.0392 0
      vertex 0 -86.35 0
    endloop
  endfacet
  facet normal -0.453989 0.891007 0
    outer loop
      vertex 3.73244 -85.1373 0
      vertex 1.96226 -86.0392 12.7
      vertex 3.73244 -85.1373 12.7
    endloop
  endfacet
  facet normal -0.453989 0.891007 0
    outer loop
      vertex 1.96226 -86.0392 12.7
      vertex 3.73244 -85.1373 0
      vertex 1.96226 -86.0392 0
    endloop
  endfacet
  facet normal -0.707107 -0.707106 0
    outer loop
      vertex 5.13726 -76.2676 0
      vertex 3.73244 -74.8627 12.7
      vertex 3.73244 -74.8627 0
    endloop
  endfacet
  facet normal -0.707107 -0.707106 0
    outer loop
      vertex 3.73244 -74.8627 12.7
      vertex 5.13726 -76.2676 0
      vertex 5.13726 -76.2676 12.7
    endloop
  endfacet
  facet normal -0.891007 -0.45399 0
    outer loop
      vertex 6.03921 -78.0377 0
      vertex 5.13726 -76.2676 12.7
      vertex 5.13726 -76.2676 0
    endloop
  endfacet
  facet normal -0.891007 -0.45399 0
    outer loop
      vertex 5.13726 -76.2676 12.7
      vertex 6.03921 -78.0377 0
      vertex 6.03921 -78.0377 12.7
    endloop
  endfacet
  facet normal -0.453989 -0.891007 0
    outer loop
      vertex 1.96226 -73.9608 0
      vertex 3.73244 -74.8627 12.7
      vertex 1.96226 -73.9608 12.7
    endloop
  endfacet
  facet normal -0.453989 -0.891007 -0
    outer loop
      vertex 3.73244 -74.8627 12.7
      vertex 1.96226 -73.9608 0
      vertex 3.73244 -74.8627 0
    endloop
  endfacet
  facet normal 0.707107 -0.707106 0
    outer loop
      vertex -5.13726 -76.2676 12.7
      vertex -3.73244 -74.8627 0
      vertex -3.73244 -74.8627 12.7
    endloop
  endfacet
  facet normal 0.707107 -0.707106 0
    outer loop
      vertex -3.73244 -74.8627 0
      vertex -5.13726 -76.2676 12.7
      vertex -5.13726 -76.2676 0
    endloop
  endfacet
  facet normal 0.891007 -0.45399 0
    outer loop
      vertex -6.03921 -78.0377 12.7
      vertex -5.13726 -76.2676 0
      vertex -5.13726 -76.2676 12.7
    endloop
  endfacet
  facet normal 0.891007 -0.45399 0
    outer loop
      vertex -5.13726 -76.2676 0
      vertex -6.03921 -78.0377 12.7
      vertex -6.03921 -78.0377 0
    endloop
  endfacet
  facet normal 0.453989 -0.891007 0
    outer loop
      vertex -3.73244 -74.8627 0
      vertex -1.96226 -73.9608 12.7
      vertex -3.73244 -74.8627 12.7
    endloop
  endfacet
  facet normal 0.453989 -0.891007 0
    outer loop
      vertex -1.96226 -73.9608 12.7
      vertex -3.73244 -74.8627 0
      vertex -1.96226 -73.9608 0
    endloop
  endfacet
  facet normal 0.707107 0.707106 0
    outer loop
      vertex -3.73244 -85.1373 12.7
      vertex -5.13726 -83.7324 0
      vertex -5.13726 -83.7324 12.7
    endloop
  endfacet
  facet normal 0.707107 0.707106 0
    outer loop
      vertex -5.13726 -83.7324 0
      vertex -3.73244 -85.1373 12.7
      vertex -3.73244 -85.1373 0
    endloop
  endfacet
  facet normal -0.156434 -0.987688 0
    outer loop
      vertex 0 -73.65 0
      vertex 1.96226 -73.9608 12.7
      vertex 0 -73.65 12.7
    endloop
  endfacet
  facet normal -0.156434 -0.987688 -0
    outer loop
      vertex 1.96226 -73.9608 12.7
      vertex 0 -73.65 0
      vertex 1.96226 -73.9608 0
    endloop
  endfacet
  facet normal 0.987688 0.156434 0
    outer loop
      vertex -6.03921 -81.9623 12.7
      vertex -6.35 -80 0
      vertex -6.35 -80 12.7
    endloop
  endfacet
  facet normal 0.987688 0.156434 0
    outer loop
      vertex -6.35 -80 0
      vertex -6.03921 -81.9623 12.7
      vertex -6.03921 -81.9623 0
    endloop
  endfacet
  facet normal -0.707107 0.707106 0
    outer loop
      vertex 3.73244 -85.1373 0
      vertex 5.13726 -83.7324 12.7
      vertex 5.13726 -83.7324 0
    endloop
  endfacet
  facet normal -0.707107 0.707106 0
    outer loop
      vertex 5.13726 -83.7324 12.7
      vertex 3.73244 -85.1373 0
      vertex 3.73244 -85.1373 12.7
    endloop
  endfacet
  facet normal -0.891007 0.45399 0
    outer loop
      vertex 5.13726 -83.7324 0
      vertex 6.03921 -81.9623 12.7
      vertex 6.03921 -81.9623 0
    endloop
  endfacet
  facet normal -0.891007 0.45399 0
    outer loop
      vertex 6.03921 -81.9623 12.7
      vertex 5.13726 -83.7324 0
      vertex 5.13726 -83.7324 12.7
    endloop
  endfacet
  facet normal 0.453989 0.891007 -0
    outer loop
      vertex -1.96226 -86.0392 0
      vertex -3.73244 -85.1373 12.7
      vertex -1.96226 -86.0392 12.7
    endloop
  endfacet
  facet normal 0.453989 0.891007 0
    outer loop
      vertex -3.73244 -85.1373 12.7
      vertex -1.96226 -86.0392 0
      vertex -3.73244 -85.1373 0
    endloop
  endfacet
  facet normal -0.987688 0.156434 0
    outer loop
      vertex 6.03921 -81.9623 0
      vertex 6.35 -80 12.7
      vertex 6.35 -80 0
    endloop
  endfacet
  facet normal -0.987688 0.156434 0
    outer loop
      vertex 6.35 -80 12.7
      vertex 6.03921 -81.9623 0
      vertex 6.03921 -81.9623 12.7
    endloop
  endfacet
  facet normal 0.156434 0.987688 -0
    outer loop
      vertex 0 -86.35 0
      vertex -1.96226 -86.0392 12.7
      vertex 0 -86.35 12.7
    endloop
  endfacet
  facet normal 0.156434 0.987688 0
    outer loop
      vertex -1.96226 -86.0392 12.7
      vertex 0 -86.35 0
      vertex -1.96226 -86.0392 0
    endloop
  endfacet
  facet normal 0.891007 0.45399 0
    outer loop
      vertex -5.13726 -83.7324 12.7
      vertex -6.03921 -81.9623 0
      vertex -6.03921 -81.9623 12.7
    endloop
  endfacet
  facet normal 0.891007 0.45399 0
    outer loop
      vertex -6.03921 -81.9623 0
      vertex -5.13726 -83.7324 12.7
      vertex -5.13726 -83.7324 0
    endloop
  endfacet
endsolid OpenSCAD_Model
